<?xml version="1.0" encoding="UTF-8"?><svg id="Layer_2" xmlns="http://www.w3.org/2000/svg" viewBox="0 0 92.09 92.09"><defs><style>.cls-1{opacity:.8;}.cls-2{fill:#fff;stroke:#009e4c;stroke-miterlimit:10;}</style></defs><g id="Layer_1-2"><g class="cls-1"><path class="cls-2" d="M64.04,35.6c2.61,1.42,5.57,2.19,8.58,2.24.03,0,.06,0,.09,0,.02,0,.03,0,.05,0,.05,0,.1,0,.16,0,8.76,0,16.44-6.21,18.27-14.76.27-1.27.41-2.59.41-3.92s-.14-2.64-.41-3.92c-1.83-8.55-9.51-14.76-18.26-14.76-2.93,0-5.74.66-8.33,1.96-5.05,2.52-8.76,7.3-9.92,12.79-.28,1.26-.42,2.58-.42,3.92s.14,2.65.41,3.92c1.14,5.35,4.57,9.91,9.39,12.51ZM58,15.97c.95-4.49,3.99-8.4,8.11-10.46,2.12-1.06,4.41-1.6,6.81-1.6,7.16,0,13.44,5.07,14.93,12.06.22,1.04.33,2.12.33,3.2s-.11,2.16-.33,3.2c-1.39,6.49-6.91,11.33-13.43,11.98v-12.44c.49.1.99.17,1.5.17,1.19,0,2.37-.28,3.46-.83,2.4-1.23,3.98-3.67,4.11-6.38.03-.61-.27-1.19-.78-1.52-2.28-1.47-5.18-1.61-7.58-.38-.95.49-1.76,1.17-2.41,1.97-.65-.8-1.46-1.48-2.41-1.97-2.4-1.23-5.3-1.09-7.58.38-.51.33-.81.91-.78,1.52.14,2.7,1.71,5.15,4.11,6.38,1.08.56,2.27.83,3.46.83.5,0,1-.07,1.49-.17v12.4c-1.88-.24-3.69-.82-5.34-1.72-3.94-2.12-6.74-5.85-7.68-10.23-.22-1.03-.33-2.11-.33-3.2s.11-2.17.34-3.21ZM74.61,18.47c.33-1.05,1.07-1.95,2.07-2.46,1-.51,2.16-.59,3.21-.25-.33,1.05-1.07,1.95-2.07,2.46-1,.51-2.16.59-3.21.25ZM70.82,18.47c-1.05.34-2.21.26-3.21-.25-1-.51-1.74-1.41-2.07-2.46,1.05-.34,2.21-.26,3.21.25,1,.51,1.74,1.41,2.07,2.46Z"/><path class="cls-2" d="M35.16,9.88h-8.29c-4.01,0-7.28,3.26-7.28,7.27v.34c0,.94.76,1.7,1.7,1.7s1.7-.76,1.7-1.7v-.34c0-2.13,1.73-3.86,3.87-3.86h8.29c3.44,0,6.24-2.8,6.24-6.24s-2.8-6.24-6.24-6.24h-4.12c-.94,0-1.7.76-1.7,1.7s.76,1.7,1.7,1.7h4.12c1.56,0,2.83,1.27,2.83,2.83s-1.27,2.83-2.83,2.83Z"/><path class="cls-2" d="M13.63,13.96c.94,0,1.7-.76,1.7-1.7,0-3.48,2.83-6.31,6.31-6.31.94,0,1.7-.76,1.7-1.7s-.76-1.7-1.7-1.7c-5.36,0-9.72,4.36-9.72,9.72,0,.94.76,1.7,1.7,1.7Z"/><path class="cls-2" d="M86.25,79.49v-24.58c0-.7-.43-1.34-1.09-1.59l-19.06-7.37c-.53-.2-1.12-.13-1.58.18-.46.32-.74.84-.74,1.41v4.88l-16.74-6.47c-.52-.2-1.12-.13-1.58.18-.46.32-.74.84-.74,1.41v4.89l-6.66-2.57-1.16-13.44c2.09-.56,3.64-2.45,3.64-4.71v-3.5c0-2.7-2.2-4.89-4.89-4.89H10.74c-2.7,0-4.89,2.2-4.89,4.89v3.5c0,2.26,1.55,4.16,3.65,4.71l-3.27,43.04c-3.19.18-5.73,2.83-5.73,6.06s2.73,6.08,6.08,6.08h78.94c3.35,0,6.08-2.73,6.08-6.08,0-3.1-2.34-5.67-5.35-6.03ZM67.19,50.03l15.65,6.05v23.36h-15.65v-29.41ZM48.13,50.03l15.65,6.05v23.36h-15.65v-29.41ZM44.71,79.44h-15.64v-29.41l15.64,6.05v23.36ZM26.4,46.14c-.46.32-.74.84-.74,1.41v31.9H9.65l3.25-42.84h20.59l1.03,11.88-6.54-2.53c-.52-.2-1.11-.13-1.58.18ZM9.26,28.2c0-.82.67-1.48,1.48-1.48h24.9c.82,0,1.48.67,1.48,1.48v3.5c0,.82-.67,1.48-1.48,1.48H10.74c-.82,0-1.48-.67-1.48-1.48v-3.5ZM85.52,88.18H6.58c-1.47,0-2.67-1.2-2.67-2.67s1.2-2.67,2.67-2.67h78.94c1.47,0,2.67,1.2,2.67,2.67s-1.2,2.67-2.67,2.67Z"/></g></g></svg>