<?xml version="1.0" encoding="UTF-8"?><svg id="Layer_2" xmlns="http://www.w3.org/2000/svg" viewBox="0 0 97.85 67.57"><defs><style>.cls-1{opacity:.8;}.cls-2{fill:#fff;stroke:#009e4c;stroke-miterlimit:10;}</style></defs><g id="Layer_1-2"><g class="cls-1"><path class="cls-2" d="M94.46,36.45l-3.3-1.9-4.06-16.72c-.73-3.02-3.42-5.14-6.53-5.14h-15.36v-7.14c0-2.78-2.26-5.05-5.05-5.05H19.68c-3.71,0-6.94,2.38-8.05,5.91L.77,41.07c-.18.57-.27,1.16-.27,1.75v14.79c0,1,.81,1.81,1.81,1.81h9.42c.84,4.35,4.68,7.65,9.28,7.65s8.44-3.3,9.28-7.65h33.06s.03,0,.05,0h8.22c.85,4.35,4.68,7.65,9.28,7.65s8.44-3.3,9.29-7.65h5.36c1,0,1.81-.81,1.81-1.81v-16.16c0-2.06-1.11-3.97-2.89-5ZM87.28,33.91h-11.52c-.38,0-.69-.31-.69-.69v-9c0-.38.31-.69.69-.69h9l2.52,10.39ZM61.58,55.79h-31.3c-.29-1.48-.93-2.86-1.84-4.02h33.14v4.02ZM4.13,42.82c0-.23.03-.45.1-.67L15.09,7.5c.63-2.02,2.48-3.37,4.59-3.37h40.48c.78,0,1.42.64,1.42,1.42v42.6H4.13v-5.33ZM4.13,51.77h9.45c-.91,1.16-1.55,2.53-1.84,4.02h-7.61v-4.02ZM26.84,57.62c0,3.22-2.62,5.83-5.83,5.83s-5.83-2.62-5.83-5.84c0-2.63,1.77-4.95,4.33-5.63.48-.13.99-.2,1.5-.2s1.01.07,1.51.21c2.54.68,4.32,2.99,4.32,5.62h0ZM80.89,63.45c-3.22,0-5.83-2.62-5.83-5.83,0-2.64,1.77-4.96,4.33-5.64.48-.13.99-.2,1.5-.2s1.02.07,1.52.21c1.77.47,3.23,1.77,3.91,3.5.27.67.41,1.38.41,2.14,0,3.22-2.62,5.83-5.84,5.83ZM93.72,55.8h-3.54c-.11-.57-.27-1.13-.49-1.67-1.1-2.78-3.47-4.89-6.33-5.65-1.6-.45-3.37-.44-4.93,0-3.52.94-6.13,3.83-6.82,7.32h-6.41V16.31h15.36c1.43,0,2.67.97,3.01,2.37l.3,1.22h-8.12c-2.38,0-4.32,1.94-4.32,4.32v9c0,2.38,1.94,4.32,4.32,4.32h13.34l3.55,2.05c.66.38,1.07,1.09,1.07,1.86v14.35Z"/><path class="cls-2" d="M81.36,55.89c-.15-.04-.3-.06-.47-.06s-.32.02-.47.06c-.77.2-1.33.9-1.33,1.74,0,.99.8,1.8,1.8,1.8s1.8-.81,1.8-1.8c0-.83-.57-1.53-1.33-1.74Z"/><path class="cls-2" d="M21.48,55.89c-.15-.04-.3-.06-.47-.06s-.32.02-.47.06c-.77.2-1.33.9-1.33,1.74,0,.99.8,1.8,1.8,1.8s1.8-.81,1.8-1.8c0-.83-.57-1.53-1.33-1.74Z"/><path class="cls-2" d="M45.99,33.63c.27.46.09.87,0,1.02-.09.15-.35.51-.89.51h-5.47c-1,0-1.81.81-1.81,1.81s.81,1.81,1.81,1.81h5.47c1.68,0,3.19-.87,4.03-2.32.84-1.46.84-3.19,0-4.65l-2.58-4.47c-.5-.87-1.61-1.16-2.48-.66-.87.5-1.16,1.61-.66,2.48l2.58,4.47Z"/><path class="cls-2" d="M26.61,38.79h5.47c1,0,1.81-.81,1.81-1.81s-.81-1.81-1.81-1.81h-5.47c-.53,0-.8-.36-.89-.51-.09-.15-.27-.56,0-1.02l2.58-4.47c.5-.87.2-1.98-.66-2.48-.87-.5-1.98-.2-2.48.66l-2.58,4.47c-.84,1.46-.84,3.19,0,4.65.84,1.46,2.35,2.32,4.03,2.32Z"/><path class="cls-2" d="M29.61,23.28c.87.5,1.98.2,2.48-.66l2.89-5c.27-.46.71-.51.89-.51s.62.05.89.51l2.89,5c.34.58.95.91,1.57.91.31,0,.62-.08.9-.24.87-.5,1.16-1.61.66-2.48l-2.89-5c-.84-1.46-2.35-2.32-4.03-2.32s-3.19.87-4.03,2.32l-2.89,5c-.5.87-.2,1.98.66,2.48Z"/></g></g></svg>