<?xml version="1.0" encoding="UTF-8"?><svg id="Layer_2" xmlns="http://www.w3.org/2000/svg" viewBox="0 0 620.34 615.22"><defs><style>.cls-1{fill:#fbba00;}.cls-1,.cls-2{stroke-width:0px;}.cls-3{opacity:.5;}.cls-2{fill:#fff;}</style></defs><g id="Layer_1-2"><g class="cls-3"><path class="cls-2" d="M307.93,601.82c-80.38,0-155.94-31.3-212.78-88.13S7.02,381.29,7.02,300.91s31.3-155.94,88.13-212.78C151.99,31.3,227.55,0,307.93,0s155.94,31.3,212.78,88.13c56.83,56.83,88.13,132.4,88.13,212.78s-31.3,155.94-88.13,212.78-132.4,88.13-212.78,88.13ZM307.93,1c-80.11,0-155.42,31.2-212.07,87.84S8.02,220.8,8.02,300.91s31.2,155.42,87.84,212.07c56.65,56.65,131.96,87.84,212.07,87.84s155.42-31.2,212.07-87.84c56.65-56.65,87.84-131.96,87.84-212.07s-31.2-155.42-87.84-212.07C463.35,32.2,388.04,1,307.93,1Z"/></g><polygon class="cls-1" points="147.18 46.66 120.33 46.73 127.22 58.42 134.11 70.11 147.18 46.66"/><polygon class="cls-1" points="10.61 336.93 0 358.96 12.32 357.96 24.64 356.97 10.61 336.93"/><polygon class="cls-1" points="293.27 601.74 316.3 615.22 316.3 601.74 316.3 588.26 293.27 601.74"/><polygon class="cls-1" points="597.93 378.89 620.34 357.43 605.26 353.13 590.18 348.84 597.93 378.89"/><polygon class="cls-1" points="481.43 55.76 470.19 29.53 461.62 41.13 453.05 52.73 481.43 55.76"/></g></svg>