<?xml version="1.0" encoding="UTF-8"?><svg id="Layer_2" xmlns="http://www.w3.org/2000/svg" viewBox="0 0 80.08 80.04"><defs><style>.cls-1{fill:#fff;opacity:.8;stroke:#009e4c;stroke-miterlimit:10;stroke-width:2.5px;}</style></defs><g id="Layer_1-2"><path class="cls-1" d="M59.27,20.78c-.1-4.04-1.72-10.89-9.6-18.76-1.01-1.01-2.81-1.01-3.83,0-.1.1-7.97,8.26-3.84,19.4-3.74-1.02-7.67-1.08-11.48-.03-6.93,1.9-12.45,7.05-15.12,14.07L1.73,69.24c-1,2.64-.4,5.51,1.59,7.5,1.34,1.34,3.1,2.06,4.93,2.06.87,0,1.75-.16,2.62-.49l33.68-13.64c7.07-2.69,12.22-8.21,14.12-15.14,1.05-3.81.99-7.74-.03-11.49,2.39.88,4.62,1.25,6.61,1.25,1.49,0,2.85-.19,4.05-.46,5.3-1.22,8.61-4.48,8.75-4.62.51-.51.79-1.2.79-1.91s-.29-1.41-.79-1.91c-7.88-7.88-14.72-9.5-18.76-9.6ZM53.45,48.09c-1.44,5.25-5.39,9.44-10.88,11.53l-3.09,1.25-8.34-8.35c-1.06-1.06-2.77-1.06-3.83,0s-1.06,2.77,0,3.83l6.72,6.73-25.14,10.18c-.91.34-1.52-.13-1.74-.35s-.7-.84-.37-1.69l3.95-9.77,3.94,3.94c.53.53,1.22.79,1.91.79s1.38-.26,1.91-.79c1.06-1.06,1.06-2.77,0-3.83l-5.56-5.56,7.52-18.58c.54-1.41,1.23-2.72,2.03-3.92l9.19,9.19c.53.53,1.22.79,1.91.79s1.38-.26,1.91-.79c1.06-1.06,1.06-2.77,0-3.83l-9.33-9.33c1.71-1.34,3.66-2.36,5.79-2.95,1.42-.39,2.86-.58,4.3-.58,3.81,0,7.59,1.34,10.81,3.9.56.44,1.1.93,1.61,1.44.51.52.99,1.05,1.43,1.61,0,0,0,0,0,0,3.53,4.44,4.74,9.95,3.32,15.12ZM52.52,27.53c-8.74-8.74-6.62-15.89-4.54-19.41,7.37,8.56,5.81,14.49,5.72,14.84-.3.94-.04,1.97.66,2.69.7.73,1.77.99,2.73.71.26-.08,6.22-1.71,14.85,5.72-3.53,2.08-10.69,4.19-19.41-4.54Z"/></g></svg>