<?xml version="1.0" encoding="UTF-8"?><svg id="Layer_2" xmlns="http://www.w3.org/2000/svg" viewBox="0 0 819.9 834.56"><defs><style>.cls-1{fill:#fff;font-family:CodecPro-Regular, 'Codec Pro';font-size:17.63px;}.cls-2{fill:#fbba00;stroke-width:0px;}.cls-3{fill:none;opacity:.5;stroke:#fff;stroke-miterlimit:10;}</style></defs><g id="Layer_1-2"><circle class="cls-3" cx="402.62" cy="417.28" r="379.7"/><text class="cls-1" transform="translate(56.93 210.71) rotate(-58.4) scale(.9 1)"><tspan x="0" y="0">P</tspan></text><text class="cls-1" transform="translate(62.08 202.33) rotate(-56.97) scale(.9 1)"><tspan x="0" y="0">R</tspan></text><text class="cls-1" transform="translate(67.71 193.65) rotate(-55.33) scale(.9 1)"><tspan x="0" y="0">O</tspan></text><text class="cls-1" transform="translate(74.97 183.18) rotate(-53.59) scale(.9 1)"><tspan x="0" y="0">D</tspan></text><text class="cls-1" transform="translate(81.92 173.75) rotate(-51.95) scale(.9 1)"><tspan x="0" y="0">U</tspan></text><text class="cls-1" transform="translate(88.95 164.77) rotate(-50.3) scale(.9 1)"><tspan x="0" y="0">C</tspan></text><text class="cls-1" transform="translate(96.15 156.12) rotate(-48.91) scale(.9 1)"><tspan x="0" y="0">T</tspan></text><text class="cls-1" transform="translate(102.12 149.31) rotate(-47.95) scale(.9 1)"><tspan x="0" y="0">I</tspan></text><text class="cls-1" transform="translate(105.1 145.95) rotate(-46.73) scale(.9 1)"><tspan x="0" y="0">O</tspan></text><text class="cls-1" transform="translate(113.84 136.67) rotate(-44.98) scale(.9 1)"><tspan x="0" y="0">N</tspan></text><text class="cls-1" transform="translate(122.47 128.11) rotate(-43.82) scale(.9 1)"><tspan x="0" y="0"> </tspan></text><text class="cls-1" transform="translate(125.49 125.21) rotate(-43.23) scale(.9 1)"><tspan x="0" y="0"> </tspan></text><text class="cls-1" transform="translate(128.57 122.32) rotate(-42.63) scale(.9 1)"><tspan x="0" y="0"> </tspan></text><text class="cls-1" transform="translate(131.65 119.48) rotate(-42.04) scale(.9 1)"><tspan x="0" y="0"> </tspan></text><text class="cls-1" transform="translate(134.78 116.66) rotate(-41.44) scale(.9 1)"><tspan x="0" y="0"> </tspan></text><text class="cls-1" transform="translate(137.94 113.88) rotate(-40.85) scale(.9 1)"><tspan x="0" y="0"> </tspan></text><text class="cls-1" transform="translate(141.11 111.14) rotate(-40.25) scale(.9 1)"><tspan x="0" y="0"> </tspan></text><text class="cls-1" transform="translate(144.34 108.41) rotate(-39.65) scale(.9 1)"><tspan x="0" y="0"> </tspan></text><text class="cls-1" transform="translate(147.57 105.73) rotate(-39.06) scale(.9 1)"><tspan x="0" y="0"> </tspan></text><text class="cls-1" transform="translate(150.84 103.08) rotate(-38.46) scale(.9 1)"><tspan x="0" y="0"> </tspan></text><text class="cls-1" transform="translate(154.14 100.46) rotate(-37.87) scale(.9 1)"><tspan x="0" y="0"> </tspan></text><text class="cls-1" transform="translate(157.45 97.89) rotate(-37.27) scale(.9 1)"><tspan x="0" y="0"> </tspan></text><text class="cls-1" transform="translate(160.79 95.34) rotate(-36.68) scale(.9 1)"><tspan x="0" y="0"> </tspan></text><text class="cls-1" transform="translate(164.17 92.83) rotate(-36.08) scale(.9 1)"><tspan x="0" y="0"> </tspan></text><text class="cls-1" transform="translate(167.58 90.35) rotate(-35.48) scale(.9 1)"><tspan x="0" y="0"> </tspan></text><text class="cls-1" transform="translate(171 87.91) rotate(-34.89) scale(.9 1)"><tspan x="0" y="0"> </tspan></text><text class="cls-1" transform="translate(174.45 85.51) rotate(-34.29) scale(.9 1)"><tspan x="0" y="0"> </tspan></text><text class="cls-1" transform="translate(177.92 83.14) rotate(-33.69) scale(.9 1)"><tspan x="0" y="0"> </tspan></text><text class="cls-1" transform="translate(181.42 80.81) rotate(-33.1) scale(.9 1)"><tspan x="0" y="0"> </tspan></text><text class="cls-1" transform="translate(184.95 78.51) rotate(-32.5) scale(.9 1)"><tspan x="0" y="0"> </tspan></text><text class="cls-1" transform="translate(188.5 76.25) rotate(-31.9) scale(.9 1)"><tspan x="0" y="0"> </tspan></text><text class="cls-1" transform="translate(192.07 74.03) rotate(-31.3) scale(.9 1)"><tspan x="0" y="0"> </tspan></text><text class="cls-1" transform="translate(195.68 71.84) rotate(-30.7) scale(.9 1)"><tspan x="0" y="0"> </tspan></text><text class="cls-1" transform="translate(199.28 69.7) rotate(-30.1) scale(.9 1)"><tspan x="0" y="0"> </tspan></text><text class="cls-1" transform="translate(202.92 67.6) rotate(-29.5) scale(.9 1)"><tspan x="0" y="0"> </tspan></text><text class="cls-1" transform="translate(206.59 65.52) rotate(-28.9) scale(.9 1)"><tspan x="0" y="0"> </tspan></text><text class="cls-1" transform="translate(210.27 63.49) rotate(-28.3) scale(.9 1)"><tspan x="0" y="0"> </tspan></text><text class="cls-1" transform="translate(213.97 61.5) rotate(-27.7) scale(.9 1)"><tspan x="0" y="0"> </tspan></text><text class="cls-1" transform="translate(217.68 59.55) rotate(-27.11) scale(.9 1)"><tspan x="0" y="0"> </tspan></text><text class="cls-1" transform="translate(221.45 57.63) rotate(-26.5) scale(.9 1)"><tspan x="0" y="0"> </tspan></text><text class="cls-1" transform="translate(225.21 55.75) rotate(-25.9) scale(.9 1)"><tspan x="0" y="0"> </tspan></text><text class="cls-1" transform="translate(228.98 53.92) rotate(-25.3) scale(.9 1)"><tspan x="0" y="0"> </tspan></text><text class="cls-1" transform="translate(232.78 52.13) rotate(-24.7) scale(.9 1)"><tspan x="0" y="0"> </tspan></text><text class="cls-1" transform="translate(236.6 50.37) rotate(-24.1) scale(.9 1)"><tspan x="0" y="0"> </tspan></text><text class="cls-1" transform="translate(240.44 48.65) rotate(-23.5) scale(.9 1)"><tspan x="0" y="0"> </tspan></text><text class="cls-1" transform="translate(244.31 46.98) rotate(-22.89) scale(.9 1)"><tspan x="0" y="0"> </tspan></text><text class="cls-1" transform="translate(248.19 45.34) rotate(-22.29) scale(.9 1)"><tspan x="0" y="0"> </tspan></text><text class="cls-1" transform="translate(252.08 43.75) rotate(-21.69) scale(.9 1)"><tspan x="0" y="0"> </tspan></text><text class="cls-1" transform="translate(255.99 42.19) rotate(-21.09) scale(.9 1)"><tspan x="0" y="0"> </tspan></text><text class="cls-1" transform="translate(259.91 40.68) rotate(-20.48) scale(.9 1)"><tspan x="0" y="0"> </tspan></text><text class="cls-1" transform="translate(263.86 39.21) rotate(-19.88) scale(.9 1)"><tspan x="0" y="0"> </tspan></text><text class="cls-1" transform="translate(267.81 37.78) rotate(-19.28) scale(.9 1)"><tspan x="0" y="0"> </tspan></text><text class="cls-1" transform="translate(271.78 36.4) rotate(-18.67) scale(.9 1)"><tspan x="0" y="0"> </tspan></text><text class="cls-1" transform="translate(275.76 35.05) rotate(-18.07) scale(.9 1)"><tspan x="0" y="0"> </tspan></text><text class="cls-1" transform="translate(279.77 33.74) rotate(-17.47) scale(.9 1)"><tspan x="0" y="0"> </tspan></text><text class="cls-1" transform="translate(283.79 32.48) rotate(-16.86) scale(.9 1)"><tspan x="0" y="0"> </tspan></text><text class="cls-1" transform="translate(287.8 31.27) rotate(-16.26) scale(.9 1)"><tspan x="0" y="0"> </tspan></text><text class="cls-1" transform="translate(291.86 30.09) rotate(-15.65) scale(.9 1)"><tspan x="0" y="0"> </tspan></text><text class="cls-1" transform="translate(295.89 28.96) rotate(-15.05) scale(.9 1)"><tspan x="0" y="0"> </tspan></text><text class="cls-1" transform="translate(299.95 27.87) rotate(-14.45) scale(.9 1)"><tspan x="0" y="0"> </tspan></text><text class="cls-1" transform="translate(304.02 26.82) rotate(-13.85) scale(.9 1)"><tspan x="0" y="0"> </tspan></text><text class="cls-1" transform="translate(308.11 25.81) rotate(-13.24) scale(.9 1)"><tspan x="0" y="0"> </tspan></text><text class="cls-1" transform="translate(312.2 24.85) rotate(-12.64) scale(.9 1)"><tspan x="0" y="0"> </tspan></text><text class="cls-1" transform="translate(316.3 23.93) rotate(-12.04) scale(.9 1)"><tspan x="0" y="0"> </tspan></text><text class="cls-1" transform="translate(320.42 23.06) rotate(-11.44) scale(.9 1)"><tspan x="0" y="0"> </tspan></text><text class="cls-1" transform="translate(324.56 22.22) rotate(-10.84) scale(.9 1)"><tspan x="0" y="0"> </tspan></text><text class="cls-1" transform="translate(328.69 21.43) rotate(-10.23) scale(.9 1)"><tspan x="0" y="0"> </tspan></text><text class="cls-1" transform="translate(332.81 20.69) rotate(-9.64) scale(.9 1)"><tspan x="0" y="0"> </tspan></text><text class="cls-1" transform="translate(336.95 19.99) rotate(-9.04) scale(.9 1)"><tspan x="0" y="0"> </tspan></text><text class="cls-1" transform="translate(341.12 19.32) rotate(-8.43) scale(.9 1)"><tspan x="0" y="0"> </tspan></text><text class="cls-1" transform="translate(345.27 18.71) rotate(-7.84) scale(.9 1)"><tspan x="0" y="0"> </tspan></text><text class="cls-1" transform="translate(349.44 18.14) rotate(-7.24) scale(.9 1)"><tspan x="0" y="0"> </tspan></text><text class="cls-1" transform="translate(353.61 17.61) rotate(-6.64) scale(.9 1)"><tspan x="0" y="0"> </tspan></text><text class="cls-1" transform="translate(357.8 17.13) rotate(-6.04) scale(.9 1)"><tspan x="0" y="0"> </tspan></text><text class="cls-1" transform="translate(361.96 16.69) rotate(-5.45) scale(.9 1)"><tspan x="0" y="0"> </tspan></text><text class="cls-1" transform="translate(366.18 16.29) rotate(-4.85) scale(.9 1)"><tspan x="0" y="0"> </tspan></text><text class="cls-1" transform="translate(370.37 15.93) rotate(-4.25) scale(.9 1)"><tspan x="0" y="0"> </tspan></text><text class="cls-1" transform="translate(374.55 15.62) rotate(-3.66) scale(.9 1)"><tspan x="0" y="0"> </tspan></text><text class="cls-1" transform="translate(378.74 15.36) rotate(-3.07) scale(.9 1)"><tspan x="0" y="0"> </tspan></text><text class="cls-1" transform="translate(382.96 15.13) rotate(-2.48) scale(.9 1)"><tspan x="0" y="0"> </tspan></text><text class="cls-1" transform="translate(387.16 14.95) rotate(-1.89) scale(.9 1)"><tspan x="0" y="0"> </tspan></text><text class="cls-1" transform="translate(391.36 14.81) rotate(-1.3) scale(.9 1)"><tspan x="0" y="0"> </tspan></text><text class="cls-1" transform="translate(395.58 14.73) rotate(-.93) scale(.9 1)"><tspan x="0" y="0"> </tspan><tspan x="4.65" y=".04"> </tspan></text><text class="cls-1" transform="translate(403.95 14.64) rotate(.93) scale(.9 1)"><tspan x="0" y="0"> </tspan></text><text class="cls-1" transform="translate(408.18 14.7) rotate(1.05) scale(.9 1)"><tspan x="0" y="0"> </tspan></text><text class="cls-1" transform="translate(412.39 14.77) rotate(1.64) scale(.9 1)"><tspan x="0" y="0"> </tspan></text><text class="cls-1" transform="translate(416.59 14.9) rotate(2.23) scale(.9 1)"><tspan x="0" y="0"> </tspan></text><text class="cls-1" transform="translate(420.78 15.06) rotate(2.82) scale(.9 1)"><tspan x="0" y="0"> </tspan></text><text class="cls-1" transform="translate(425 15.27) rotate(3.41) scale(.9 1)"><tspan x="0" y="0"> </tspan></text><text class="cls-1" transform="translate(429.2 15.52) rotate(4.01) scale(.9 1)"><tspan x="0" y="0"> </tspan></text><text class="cls-1" transform="translate(433.4 15.82) rotate(4.6) scale(.9 1)"><tspan x="0" y="0"> </tspan></text><text class="cls-1" transform="translate(437.58 16.16) rotate(5.19) scale(.9 1)"><tspan x="0" y="0"> </tspan></text><text class="cls-1" transform="translate(441.76 16.54) rotate(5.79) scale(.9 1)"><tspan x="0" y="0"> </tspan></text><text class="cls-1" transform="translate(445.96 16.96) rotate(6.39) scale(.9 1)"><tspan x="0" y="0"> </tspan></text><text class="cls-1" transform="translate(450.14 17.43) rotate(6.98) scale(.9 1)"><tspan x="0" y="0"> </tspan></text><text class="cls-1" transform="translate(454.31 17.95) rotate(7.58) scale(.9 1)"><tspan x="0" y="0"> </tspan></text><text class="cls-1" transform="translate(458.48 18.5) rotate(8.18) scale(.9 1)"><tspan x="0" y="0"> </tspan></text><text class="cls-1" transform="translate(462.62 19.1) rotate(8.78) scale(.9 1)"><tspan x="0" y="0"> </tspan></text><text class="cls-1" transform="translate(466.8 19.74) rotate(9.38) scale(.9 1)"><tspan x="0" y="0"> </tspan></text><text class="cls-1" transform="translate(470.95 20.43) rotate(9.98) scale(.9 1)"><tspan x="0" y="0"> </tspan></text><text class="cls-1" transform="translate(475.1 21.16) rotate(10.58) scale(.9 1)"><tspan x="0" y="0"> </tspan></text><text class="cls-1" transform="translate(479.23 21.94) rotate(11.18) scale(.9 1)"><tspan x="0" y="0"> </tspan></text><text class="cls-1" transform="translate(483.34 22.75) rotate(11.78) scale(.9 1)"><tspan x="0" y="0"> </tspan></text><text class="cls-1" transform="translate(487.46 23.61) rotate(12.39) scale(.9 1)"><tspan x="0" y="0"> </tspan></text><text class="cls-1" transform="translate(491.56 24.51) rotate(12.99) scale(.9 1)"><tspan x="0" y="0"> </tspan></text><text class="cls-1" transform="translate(495.67 25.46) rotate(13.59) scale(.9 1)"><tspan x="0" y="0"> </tspan></text><text class="cls-1" transform="translate(499.76 26.45) rotate(14.19) scale(.9 1)"><tspan x="0" y="0"> </tspan></text><text class="cls-1" transform="translate(503.83 27.49) rotate(14.8) scale(.9 1)"><tspan x="0" y="0"> </tspan></text><text class="cls-1" transform="translate(507.89 28.56) rotate(15.4) scale(.9 1)"><tspan x="0" y="0"> </tspan></text><text class="cls-1" transform="translate(511.96 29.68) rotate(16.01) scale(.9 1)"><tspan x="0" y="0"> </tspan></text><text class="cls-1" transform="translate(515.99 30.84) rotate(16.61) scale(.9 1)"><tspan x="0" y="0"> </tspan></text><text class="cls-1" transform="translate(520.03 32.05) rotate(17.21) scale(.9 1)"><tspan x="0" y="0"> </tspan></text><text class="cls-1" transform="translate(524.04 33.29) rotate(17.81) scale(.9 1)"><tspan x="0" y="0"> </tspan></text><text class="cls-1" transform="translate(528.05 34.58) rotate(18.42) scale(.9 1)"><tspan x="0" y="0"> </tspan></text><text class="cls-1" transform="translate(532.03 35.91) rotate(19.02) scale(.9 1)"><tspan x="0" y="0"> </tspan></text><text class="cls-1" transform="translate(536.02 37.28) rotate(19.62) scale(.9 1)"><tspan x="0" y="0"> </tspan></text><text class="cls-1" transform="translate(539.97 38.7) rotate(20.23) scale(.9 1)"><tspan x="0" y="0"> </tspan></text><text class="cls-1" transform="translate(543.91 40.15) rotate(20.83) scale(.9 1)"><tspan x="0" y="0"> </tspan></text><text class="cls-1" transform="translate(547.85 41.65) rotate(21.43) scale(.9 1)"><tspan x="0" y="0"> </tspan></text><text class="cls-1" transform="translate(551.75 43.18) rotate(22.03) scale(.9 1)"><tspan x="0" y="0"> </tspan></text><text class="cls-1" transform="translate(555.66 44.76) rotate(22.64) scale(.9 1)"><tspan x="0" y="0"> </tspan></text><text class="cls-1" transform="translate(559.55 46.39) rotate(23.24) scale(.9 1)"><tspan x="0" y="0"> </tspan></text><text class="cls-1" transform="translate(563.41 48.05) rotate(23.84) scale(.9 1)"><tspan x="0" y="0"> </tspan></text><text class="cls-1" transform="translate(567.26 49.75) rotate(24.44) scale(.9 1)"><tspan x="0" y="0"> </tspan></text><text class="cls-1" transform="translate(571.09 51.49) rotate(25.04) scale(.9 1)"><tspan x="0" y="0"> </tspan></text><text class="cls-1" transform="translate(574.89 53.27) rotate(25.65) scale(.9 1)"><tspan x="0" y="0"> </tspan></text><text class="cls-1" transform="translate(578.67 55.09) rotate(26.24) scale(.9 1)"><tspan x="0" y="0"> </tspan></text><text class="cls-1" transform="translate(582.45 56.95) rotate(26.85) scale(.9 1)"><tspan x="0" y="0"> </tspan></text><text class="cls-1" transform="translate(586.21 58.85) rotate(27.45) scale(.9 1)"><tspan x="0" y="0"> </tspan></text><text class="cls-1" transform="translate(589.92 60.79) rotate(28.05) scale(.9 1)"><tspan x="0" y="0"> </tspan></text><text class="cls-1" transform="translate(593.65 62.77) rotate(28.65) scale(.9 1)"><tspan x="0" y="0"> </tspan></text><text class="cls-1" transform="translate(597.33 64.79) rotate(29.25) scale(.9 1)"><tspan x="0" y="0"> </tspan></text><text class="cls-1" transform="translate(601 66.84) rotate(29.85) scale(.9 1)"><tspan x="0" y="0"> </tspan></text><text class="cls-1" transform="translate(604.65 68.94) rotate(30.45) scale(.9 1)"><tspan x="0" y="0"> </tspan></text><text class="cls-1" transform="translate(608.28 71.08) rotate(31.05) scale(.9 1)"><tspan x="0" y="0"> </tspan></text><text class="cls-1" transform="translate(611.88 73.24) rotate(31.64) scale(.9 1)"><tspan x="0" y="0"> </tspan></text><text class="cls-1" transform="translate(615.46 75.45) rotate(32.24) scale(.9 1)"><tspan x="0" y="0"> </tspan></text><text class="cls-1" transform="translate(619 77.69) rotate(32.84) scale(.9 1)"><tspan x="0" y="0"> </tspan></text><text class="cls-1" transform="translate(622.53 79.97) rotate(33.43) scale(.9 1)"><tspan x="0" y="0"> </tspan></text><text class="cls-1" transform="translate(626.06 82.3) rotate(34.03) scale(.9 1)"><tspan x="0" y="0"> </tspan></text><text class="cls-1" transform="translate(629.54 84.65) rotate(34.63) scale(.9 1)"><tspan x="0" y="0"> </tspan></text><text class="cls-1" transform="translate(633.01 87.05) rotate(35.23) scale(.9 1)"><tspan x="0" y="0"> </tspan></text><text class="cls-1" transform="translate(636.44 89.47) rotate(35.83) scale(.9 1)"><tspan x="0" y="0"> </tspan></text><text class="cls-1" transform="translate(639.84 91.93) rotate(36.42) scale(.9 1)"><tspan x="0" y="0"> </tspan></text><text class="cls-1" transform="translate(643.22 94.42) rotate(37.02) scale(.9 1)"><tspan x="0" y="0"> </tspan></text><text class="cls-1" transform="translate(646.58 96.96) rotate(37.61) scale(.9 1)"><tspan x="0" y="0"> </tspan></text><text class="cls-1" transform="translate(649.92 99.53) rotate(38.21) scale(.9 1)"><tspan x="0" y="0"> </tspan></text><text class="cls-1" transform="translate(653.21 102.13) rotate(38.8) scale(.9 1)"><tspan x="0" y="0"> </tspan></text><text class="cls-1" transform="translate(656.5 104.77) rotate(39.4) scale(.9 1)"><tspan x="0" y="0"> </tspan></text><text class="cls-1" transform="translate(659.75 107.44) rotate(40) scale(.9 1)"><tspan x="0" y="0"> </tspan></text><text class="cls-1" transform="translate(662.96 110.14) rotate(40.59) scale(.9 1)"><tspan x="0" y="0"> </tspan></text><text class="cls-1" transform="translate(666.17 112.89) rotate(41.19) scale(.9 1)"><tspan x="0" y="0"> </tspan></text><text class="cls-1" transform="translate(669.32 115.65) rotate(41.78) scale(.9 1)"><tspan x="0" y="0"> </tspan></text><text class="cls-1" transform="translate(672.47 118.47) rotate(42.38) scale(.9 1)"><tspan x="0" y="0"> </tspan></text><text class="cls-1" transform="translate(675.56 121.29) rotate(42.97) scale(.9 1)"><tspan x="0" y="0"> </tspan></text><text class="cls-1" transform="translate(678.64 124.16) rotate(43.57) scale(.9 1)"><tspan x="0" y="0"> </tspan></text><text class="cls-1" transform="translate(681.69 127.01) rotate(44.71) scale(.9 1)"><tspan x="0" y="0">C</tspan></text><text class="cls-1" transform="translate(690.17 135.4) rotate(46.45) scale(.9 1)"><tspan x="0" y="0">O</tspan></text><text class="cls-1" transform="translate(698.93 144.64) rotate(48.21) scale(.9 1)"><tspan x="0" y="0">N</tspan></text><text class="cls-1" transform="translate(707.01 153.7) rotate(49.75) scale(.9 1)"><tspan x="0" y="0">S</tspan></text><text class="cls-1" transform="translate(713.26 161.07) rotate(51.24) scale(.9 1)"><tspan x="0" y="0">U</tspan></text><text class="cls-1" transform="translate(720.41 169.96) rotate(53.01) scale(.9 1)"><tspan x="0" y="0">M</tspan></text><text class="cls-1" transform="translate(728.51 180.75) rotate(54.66) scale(.9 1)"><tspan x="0" y="0">P</tspan></text><text class="cls-1" transform="translate(734.19 188.77) rotate(56) scale(.9 1)"><tspan x="0" y="0">T</tspan></text><text class="cls-1" transform="translate(739.24 196.3) rotate(56.96) scale(.9 1)"><tspan x="0" y="0">I</tspan></text><text class="cls-1" transform="translate(741.73 200.05) rotate(58.19) scale(.9 1)"><tspan x="0" y="0">O</tspan></text><text class="cls-1" transform="translate(748.43 210.88) rotate(59.96) scale(.9 1)"><tspan x="0" y="0">N</tspan></text><text class="cls-1" transform="translate(754.48 221.42) rotate(61.12) scale(.9 1)"><tspan x="0" y="0"> </tspan></text><text class="cls-1" transform="translate(756.5 225.08) rotate(61.72) scale(.9 1)"><tspan x="0" y="0"> </tspan></text><text class="cls-1" transform="translate(758.5 228.8) rotate(62.32) scale(.9 1)"><tspan x="0" y="0"> </tspan></text><text class="cls-1" transform="translate(760.44 232.52) rotate(62.92) scale(.9 1)"><tspan x="0" y="0"> </tspan></text><text class="cls-1" transform="translate(762.36 236.28) rotate(63.53) scale(.9 1)"><tspan x="0" y="0"> </tspan></text><text class="cls-1" transform="translate(764.23 240.04) rotate(64.13) scale(.9 1)"><tspan x="0" y="0"> </tspan></text><text class="cls-1" transform="translate(766.06 243.82) rotate(64.73) scale(.9 1)"><tspan x="0" y="0"> </tspan></text><text class="cls-1" transform="translate(767.86 247.62) rotate(65.33) scale(.9 1)"><tspan x="0" y="0"> </tspan></text><text class="cls-1" transform="translate(769.61 251.44) rotate(65.93) scale(.9 1)"><tspan x="0" y="0"> </tspan></text><text class="cls-1" transform="translate(771.33 255.28) rotate(66.53) scale(.9 1)"><tspan x="0" y="0"> </tspan></text><text class="cls-1" transform="translate(773 259.15) rotate(67.13) scale(.9 1)"><tspan x="0" y="0"> </tspan></text><text class="cls-1" transform="translate(774.64 263.03) rotate(67.74) scale(.9 1)"><tspan x="0" y="0"> </tspan></text><text class="cls-1" transform="translate(776.22 266.9) rotate(68.34) scale(.9 1)"><tspan x="0" y="0"> </tspan></text><text class="cls-1" transform="translate(777.78 270.83) rotate(68.94) scale(.9 1)"><tspan x="0" y="0"> </tspan></text><text class="cls-1" transform="translate(779.28 274.74) rotate(69.54) scale(.9 1)"><tspan x="0" y="0"> </tspan></text><text class="cls-1" transform="translate(780.75 278.69) rotate(70.15) scale(.9 1)"><tspan x="0" y="0"> </tspan></text><text class="cls-1" transform="translate(782.19 282.65) rotate(70.75) scale(.9 1)"><tspan x="0" y="0"> </tspan></text><text class="cls-1" transform="translate(783.57 286.62) rotate(71.35) scale(.9 1)"><tspan x="0" y="0"> </tspan></text><text class="cls-1" transform="translate(784.91 290.61) rotate(71.96) scale(.9 1)"><tspan x="0" y="0"> </tspan></text><text class="cls-1" transform="translate(786.21 294.6) rotate(72.56) scale(.9 1)"><tspan x="0" y="0"> </tspan></text><text class="cls-1" transform="translate(787.47 298.6) rotate(73.16) scale(.9 1)"><tspan x="0" y="0"> </tspan></text><text class="cls-1" transform="translate(788.69 302.64) rotate(73.77) scale(.9 1)"><tspan x="0" y="0"> </tspan></text><text class="cls-1" transform="translate(789.86 306.67) rotate(74.37) scale(.9 1)"><tspan x="0" y="0"> </tspan></text><text class="cls-1" transform="translate(790.99 310.73) rotate(74.97) scale(.9 1)"><tspan x="0" y="0"> </tspan></text><text class="cls-1" transform="translate(792.09 314.8) rotate(75.58) scale(.9 1)"><tspan x="0" y="0"> </tspan></text><text class="cls-1" transform="translate(793.13 318.88) rotate(76.18) scale(.9 1)"><tspan x="0" y="0"> </tspan></text><text class="cls-1" transform="translate(794.13 322.95) rotate(76.78) scale(.9 1)"><tspan x="0" y="0"> </tspan></text><text class="cls-1" transform="translate(795.09 327.03) rotate(77.38) scale(.9 1)"><tspan x="0" y="0"> </tspan></text><text class="cls-1" transform="translate(796.01 331.16) rotate(77.99) scale(.9 1)"><tspan x="0" y="0"> </tspan></text><text class="cls-1" transform="translate(796.88 335.26) rotate(78.59) scale(.9 1)"><tspan x="0" y="0"> </tspan></text><text class="cls-1" transform="translate(797.71 339.37) rotate(79.19) scale(.9 1)"><tspan x="0" y="0"> </tspan></text><text class="cls-1" transform="translate(798.5 343.5) rotate(79.79) scale(.9 1)"><tspan x="0" y="0"> </tspan></text><text class="cls-1" transform="translate(799.24 347.65) rotate(80.39) scale(.9 1)"><tspan x="0" y="0"> </tspan></text><text class="cls-1" transform="translate(799.95 351.81) rotate(80.99) scale(.9 1)"><tspan x="0" y="0"> </tspan></text><text class="cls-1" transform="translate(800.6 355.94) rotate(81.59) scale(.9 1)"><tspan x="0" y="0"> </tspan></text><text class="cls-1" transform="translate(801.22 360.11) rotate(82.19) scale(.9 1)"><tspan x="0" y="0"> </tspan></text><text class="cls-1" transform="translate(801.79 364.3) rotate(82.79) scale(.9 1)"><tspan x="0" y="0"> </tspan></text><text class="cls-1" transform="translate(802.31 368.45) rotate(83.38) scale(.9 1)"><tspan x="0" y="0"> </tspan></text><text class="cls-1" transform="translate(802.8 372.62) rotate(83.98) scale(.9 1)"><tspan x="0" y="0"> </tspan></text><text class="cls-1" transform="translate(803.24 376.83) rotate(84.58) scale(.9 1)"><tspan x="0" y="0"> </tspan></text><text class="cls-1" transform="translate(803.63 381) rotate(85.17) scale(.9 1)"><tspan x="0" y="0"> </tspan></text><text class="cls-1" transform="translate(803.98 385.19) rotate(85.77) scale(.9 1)"><tspan x="0" y="0"> </tspan></text><text class="cls-1" transform="translate(804.29 389.39) rotate(86.36) scale(.9 1)"><tspan x="0" y="0"> </tspan></text><text class="cls-1" transform="translate(804.56 393.6) rotate(86.96) scale(.9 1)"><tspan x="0" y="0"> </tspan></text><text class="cls-1" transform="translate(804.78 397.78) rotate(87.55) scale(.9 1)"><tspan x="0" y="0"> </tspan></text><text class="cls-1" transform="translate(804.96 401.98) rotate(88.13) scale(.9 1)"><tspan x="0" y="0"> </tspan></text><text class="cls-1" transform="translate(805.09 406.19) rotate(88.72) scale(.9 1)"><tspan x="0" y="0"> </tspan></text><text class="cls-1" transform="translate(805.18 410.4) rotate(89.07) scale(.9 1)"><tspan x="0" y="0"> </tspan><tspan x="4.7" y=".04"> </tspan></text><text class="cls-1" transform="translate(805.26 418.78) rotate(90.93) scale(.9 1)"><tspan x="0" y="0"> </tspan></text><text class="cls-1" transform="translate(805.2 423.02) rotate(91.07) scale(.9 1)"><tspan x="0" y="0"> </tspan></text><text class="cls-1" transform="translate(805.12 427.21) rotate(91.66) scale(.9 1)"><tspan x="0" y="0"> </tspan></text><text class="cls-1" transform="translate(805 431.43) rotate(92.25) scale(.9 1)"><tspan x="0" y="0"> </tspan></text><text class="cls-1" transform="translate(804.83 435.64) rotate(92.85) scale(.9 1)"><tspan x="0" y="0"> </tspan></text><text class="cls-1" transform="translate(804.62 439.82) rotate(93.43) scale(.9 1)"><tspan x="0" y="0"> </tspan></text><text class="cls-1" transform="translate(804.37 444.03) rotate(94.03) scale(.9 1)"><tspan x="0" y="0"> </tspan></text><text class="cls-1" transform="translate(804.07 448.22) rotate(94.62) scale(.9 1)"><tspan x="0" y="0"> </tspan></text><text class="cls-1" transform="translate(803.73 452.41) rotate(95.22) scale(.9 1)"><tspan x="0" y="0"> </tspan></text><text class="cls-1" transform="translate(803.35 456.62) rotate(95.82) scale(.9 1)"><tspan x="0" y="0"> </tspan></text><text class="cls-1" transform="translate(802.92 460.78) rotate(96.41) scale(.9 1)"><tspan x="0" y="0"> </tspan></text><text class="cls-1" transform="translate(802.45 464.96) rotate(97.01) scale(.9 1)"><tspan x="0" y="0"> </tspan></text><text class="cls-1" transform="translate(801.94 469.13) rotate(97.61) scale(.9 1)"><tspan x="0" y="0"> </tspan></text><text class="cls-1" transform="translate(801.38 473.32) rotate(98.21) scale(.9 1)"><tspan x="0" y="0"> </tspan></text><text class="cls-1" transform="translate(800.77 477.48) rotate(98.81) scale(.9 1)"><tspan x="0" y="0"> </tspan></text><text class="cls-1" transform="translate(800.13 481.63) rotate(99.41) scale(.9 1)"><tspan x="0" y="0"> </tspan></text><text class="cls-1" transform="translate(799.44 485.77) rotate(100) scale(.9 1)"><tspan x="0" y="0"> </tspan></text><text class="cls-1" transform="translate(798.71 489.91) rotate(100.61) scale(.9 1)"><tspan x="0" y="0"> </tspan></text><text class="cls-1" transform="translate(797.94 494.04) rotate(101.21) scale(.9 1)"><tspan x="0" y="0"> </tspan></text><text class="cls-1" transform="translate(797.11 498.19) rotate(101.81) scale(.9 1)"><tspan x="0" y="0"> </tspan></text><text class="cls-1" transform="translate(796.25 502.29) rotate(102.41) scale(.9 1)"><tspan x="0" y="0"> </tspan></text><text class="cls-1" transform="translate(795.34 506.41) rotate(103.02) scale(.9 1)"><tspan x="0" y="0"> </tspan></text><text class="cls-1" transform="translate(794.4 510.5) rotate(103.62) scale(.9 1)"><tspan x="0" y="0"> </tspan></text><text class="cls-1" transform="translate(793.41 514.59) rotate(104.22) scale(.9 1)"><tspan x="0" y="0"> </tspan></text><text class="cls-1" transform="translate(792.37 518.66) rotate(104.82) scale(.9 1)"><tspan x="0" y="0"> </tspan></text><text class="cls-1" transform="translate(791.29 522.74) rotate(105.43) scale(.9 1)"><tspan x="0" y="0"> </tspan></text><text class="cls-1" transform="translate(790.18 526.78) rotate(106.03) scale(.9 1)"><tspan x="0" y="0"> </tspan></text><text class="cls-1" transform="translate(789.01 530.84) rotate(106.63) scale(.9 1)"><tspan x="0" y="0"> </tspan></text><text class="cls-1" transform="translate(787.81 534.84) rotate(107.23) scale(.9 1)"><tspan x="0" y="0"> </tspan></text><text class="cls-1" transform="translate(786.56 538.87) rotate(107.84) scale(.9 1)"><tspan x="0" y="0"> </tspan></text><text class="cls-1" transform="translate(785.27 542.87) rotate(108.44) scale(.9 1)"><tspan x="0" y="0"> </tspan></text><text class="cls-1" transform="translate(783.94 546.86) rotate(109.04) scale(.9 1)"><tspan x="0" y="0"> </tspan></text><text class="cls-1" transform="translate(782.57 550.83) rotate(109.65) scale(.9 1)"><tspan x="0" y="0"> </tspan></text><text class="cls-1" transform="translate(781.15 554.8) rotate(110.25) scale(.9 1)"><tspan x="0" y="0"> </tspan></text><text class="cls-1" transform="translate(779.69 558.75) rotate(110.85) scale(.9 1)"><tspan x="0" y="0"> </tspan></text><text class="cls-1" transform="translate(778.2 562.66) rotate(111.45) scale(.9 1)"><tspan x="0" y="0"> </tspan></text><text class="cls-1" transform="translate(776.65 566.59) rotate(112.06) scale(.9 1)"><tspan x="0" y="0"> </tspan></text><text class="cls-1" transform="translate(775.07 570.5) rotate(112.66) scale(.9 1)"><tspan x="0" y="0"> </tspan></text><text class="cls-1" transform="translate(773.45 574.37) rotate(113.26) scale(.9 1)"><tspan x="0" y="0"> </tspan></text><text class="cls-1" transform="translate(771.79 578.22) rotate(113.86) scale(.9 1)"><tspan x="0" y="0"> </tspan></text><text class="cls-1" transform="translate(770.09 582.06) rotate(114.47) scale(.9 1)"><tspan x="0" y="0"> </tspan></text><text class="cls-1" transform="translate(768.35 585.89) rotate(115.07) scale(.9 1)"><tspan x="0" y="0"> </tspan></text><text class="cls-1" transform="translate(766.56 589.71) rotate(115.67) scale(.9 1)"><tspan x="0" y="0"> </tspan></text><text class="cls-1" transform="translate(764.73 593.51) rotate(116.27) scale(.9 1)"><tspan x="0" y="0"> </tspan></text><text class="cls-1" transform="translate(762.87 597.27) rotate(116.87) scale(.9 1)"><tspan x="0" y="0"> </tspan></text><text class="cls-1" transform="translate(760.97 601.02) rotate(117.47) scale(.9 1)"><tspan x="0" y="0"> </tspan></text><text class="cls-1" transform="translate(759.03 604.75) rotate(118.07) scale(.9 1)"><tspan x="0" y="0"> </tspan></text><text class="cls-1" transform="translate(757.05 608.46) rotate(118.67) scale(.9 1)"><tspan x="0" y="0"> </tspan></text><text class="cls-1" transform="translate(755.03 612.15) rotate(119.27) scale(.9 1)"><tspan x="0" y="0"> </tspan></text><text class="cls-1" transform="translate(752.97 615.83) rotate(119.87) scale(.9 1)"><tspan x="0" y="0"> </tspan></text><text class="cls-1" transform="translate(750.88 619.46) rotate(120.47) scale(.9 1)"><tspan x="0" y="0"> </tspan></text><text class="cls-1" transform="translate(748.75 623.08) rotate(121.07) scale(.9 1)"><tspan x="0" y="0"> </tspan></text><text class="cls-1" transform="translate(746.57 626.69) rotate(121.67) scale(.9 1)"><tspan x="0" y="0"> </tspan></text><text class="cls-1" transform="translate(744.36 630.27) rotate(122.27) scale(.9 1)"><tspan x="0" y="0"> </tspan></text><text class="cls-1" transform="translate(742.11 633.82) rotate(122.86) scale(.9 1)"><tspan x="0" y="0"> </tspan></text><text class="cls-1" transform="translate(739.83 637.36) rotate(123.46) scale(.9 1)"><tspan x="0" y="0"> </tspan></text><text class="cls-1" transform="translate(737.51 640.86) rotate(124.06) scale(.9 1)"><tspan x="0" y="0"> </tspan></text><text class="cls-1" transform="translate(735.16 644.34) rotate(124.66) scale(.9 1)"><tspan x="0" y="0"> </tspan></text><text class="cls-1" transform="translate(732.77 647.8) rotate(125.25) scale(.9 1)"><tspan x="0" y="0"> </tspan></text><text class="cls-1" transform="translate(730.33 651.24) rotate(125.85) scale(.9 1)"><tspan x="0" y="0"> </tspan></text><text class="cls-1" transform="translate(727.86 654.66) rotate(126.45) scale(.9 1)"><tspan x="0" y="0"> </tspan></text><text class="cls-1" transform="translate(725.37 658.03) rotate(127.04) scale(.9 1)"><tspan x="0" y="0"> </tspan></text><text class="cls-1" transform="translate(722.89 661.38) rotate(128.18) scale(.9 1)"><tspan x="0" y="0">C</tspan></text><text class="cls-1" transform="translate(715.51 670.77) rotate(129.93) scale(.9 1)"><tspan x="0" y="0">O</tspan></text><text class="cls-1" transform="translate(707.3 680.52) rotate(131.43) scale(.9 1)"><tspan x="0" y="0">L</tspan></text><text class="cls-1" transform="translate(701.68 686.89) rotate(132.64) scale(.9 1)"><tspan x="0" y="0">L</tspan></text><text class="cls-1" transform="translate(695.93 693.14) rotate(133.9) scale(.9 1)"><tspan x="0" y="0">E</tspan></text><text class="cls-1" transform="translate(689.5 699.84) rotate(135.39) scale(.9 1)"><tspan x="0" y="0">C</tspan></text><text class="cls-1" transform="translate(681.49 707.72) rotate(136.78) scale(.9 1)"><tspan x="0" y="0">T</tspan></text><text class="cls-1" transform="translate(674.87 713.91) rotate(137.74) scale(.9 1)"><tspan x="0" y="0">I</tspan></text><text class="cls-1" transform="translate(671.57 716.97) rotate(138.96) scale(.9 1)"><tspan x="0" y="0">O</tspan></text><text class="cls-1" transform="translate(661.95 725.33) rotate(140.72) scale(.9 1)"><tspan x="0" y="0">N</tspan></text><text class="cls-1" transform="translate(652.53 732.98) rotate(141.88) scale(.9 1)"><tspan x="0" y="0"> </tspan></text><text class="cls-1" transform="translate(649.22 735.57) rotate(142.47) scale(.9 1)"><tspan x="0" y="0"> </tspan></text><text class="cls-1" transform="translate(645.87 738.15) rotate(143.07) scale(.9 1)"><tspan x="0" y="0"> </tspan></text><text class="cls-1" transform="translate(642.51 740.67) rotate(143.66) scale(.9 1)"><tspan x="0" y="0"> </tspan></text><text class="cls-1" transform="translate(639.13 743.15) rotate(144.26) scale(.9 1)"><tspan x="0" y="0"> </tspan></text><text class="cls-1" transform="translate(635.72 745.61) rotate(144.86) scale(.9 1)"><tspan x="0" y="0"> </tspan></text><text class="cls-1" transform="translate(632.28 748.02) rotate(145.45) scale(.9 1)"><tspan x="0" y="0"> </tspan></text><text class="cls-1" transform="translate(628.8 750.42) rotate(146.05) scale(.9 1)"><tspan x="0" y="0"> </tspan></text><text class="cls-1" transform="translate(625.32 752.76) rotate(146.65) scale(.9 1)"><tspan x="0" y="0"> </tspan></text><text class="cls-1" transform="translate(621.8 755.07) rotate(147.25) scale(.9 1)"><tspan x="0" y="0"> </tspan></text><text class="cls-1" transform="translate(618.26 757.35) rotate(147.84) scale(.9 1)"><tspan x="0" y="0"> </tspan></text><text class="cls-1" transform="translate(614.71 759.58) rotate(148.44) scale(.9 1)"><tspan x="0" y="0"> </tspan></text><text class="cls-1" transform="translate(611.12 761.78) rotate(149.04) scale(.9 1)"><tspan x="0" y="0"> </tspan></text><text class="cls-1" transform="translate(607.51 763.95) rotate(149.64) scale(.9 1)"><tspan x="0" y="0"> </tspan></text><text class="cls-1" transform="translate(603.87 766.08) rotate(150.24) scale(.9 1)"><tspan x="0" y="0"> </tspan></text><text class="cls-1" transform="translate(600.24 768.15) rotate(150.84) scale(.9 1)"><tspan x="0" y="0"> </tspan></text><text class="cls-1" transform="translate(596.55 770.21) rotate(151.44) scale(.9 1)"><tspan x="0" y="0"> </tspan></text><text class="cls-1" transform="translate(592.86 772.22) rotate(152.04) scale(.9 1)"><tspan x="0" y="0"> </tspan></text><text class="cls-1" transform="translate(589.14 774.19) rotate(152.64) scale(.9 1)"><tspan x="0" y="0"> </tspan></text><text class="cls-1" transform="translate(585.42 776.11) rotate(153.24) scale(.9 1)"><tspan x="0" y="0"> </tspan></text><text class="cls-1" transform="translate(581.66 778.01) rotate(153.84) scale(.9 1)"><tspan x="0" y="0"> </tspan></text><text class="cls-1" transform="translate(577.87 779.87) rotate(154.44) scale(.9 1)"><tspan x="0" y="0"> </tspan></text><text class="cls-1" transform="translate(574.09 781.68) rotate(155.04) scale(.9 1)"><tspan x="0" y="0"> </tspan></text><text class="cls-1" transform="translate(570.27 783.45) rotate(155.64) scale(.9 1)"><tspan x="0" y="0"> </tspan></text><text class="cls-1" transform="translate(566.44 785.18) rotate(156.25) scale(.9 1)"><tspan x="0" y="0"> </tspan></text><text class="cls-1" transform="translate(562.58 786.88) rotate(156.85) scale(.9 1)"><tspan x="0" y="0"> </tspan></text><text class="cls-1" transform="translate(558.71 788.53) rotate(157.45) scale(.9 1)"><tspan x="0" y="0"> </tspan></text><text class="cls-1" transform="translate(554.85 790.13) rotate(158.05) scale(.9 1)"><tspan x="0" y="0"> </tspan></text><text class="cls-1" transform="translate(550.93 791.71) rotate(158.66) scale(.9 1)"><tspan x="0" y="0"> </tspan></text><text class="cls-1" transform="translate(547.03 793.23) rotate(159.26) scale(.9 1)"><tspan x="0" y="0"> </tspan></text><text class="cls-1" transform="translate(543.08 794.73) rotate(159.86) scale(.9 1)"><tspan x="0" y="0"> </tspan></text><text class="cls-1" transform="translate(539.13 796.17) rotate(160.46) scale(.9 1)"><tspan x="0" y="0"> </tspan></text><text class="cls-1" transform="translate(535.17 797.58) rotate(161.07) scale(.9 1)"><tspan x="0" y="0"> </tspan></text><text class="cls-1" transform="translate(531.2 798.94) rotate(161.67) scale(.9 1)"><tspan x="0" y="0"> </tspan></text><text class="cls-1" transform="translate(527.2 800.26) rotate(162.27) scale(.9 1)"><tspan x="0" y="0"> </tspan></text><text class="cls-1" transform="translate(523.18 801.54) rotate(162.88) scale(.9 1)"><tspan x="0" y="0"> </tspan></text><text class="cls-1" transform="translate(519.19 802.77) rotate(163.48) scale(.9 1)"><tspan x="0" y="0"> </tspan></text><text class="cls-1" transform="translate(515.14 803.98) rotate(164.08) scale(.9 1)"><tspan x="0" y="0"> </tspan></text><text class="cls-1" transform="translate(511.1 805.12) rotate(164.69) scale(.9 1)"><tspan x="0" y="0"> </tspan></text><text class="cls-1" transform="translate(507.04 806.23) rotate(165.29) scale(.9 1)"><tspan x="0" y="0"> </tspan></text><text class="cls-1" transform="translate(502.97 807.3) rotate(165.89) scale(.9 1)"><tspan x="0" y="0"> </tspan></text><text class="cls-1" transform="translate(498.91 808.32) rotate(166.49) scale(.9 1)"><tspan x="0" y="0"> </tspan></text><text class="cls-1" transform="translate(494.81 809.3) rotate(167.1) scale(.9 1)"><tspan x="0" y="0"> </tspan></text><text class="cls-1" transform="translate(490.7 810.24) rotate(167.7) scale(.9 1)"><tspan x="0" y="0"> </tspan></text><text class="cls-1" transform="translate(486.6 811.14) rotate(168.3) scale(.9 1)"><tspan x="0" y="0"> </tspan></text><text class="cls-1" transform="translate(482.47 811.99) rotate(168.9) scale(.9 1)"><tspan x="0" y="0"> </tspan></text><text class="cls-1" transform="translate(478.35 812.79) rotate(169.5) scale(.9 1)"><tspan x="0" y="0"> </tspan></text><text class="cls-1" transform="translate(474.21 813.56) rotate(170.11) scale(.9 1)"><tspan x="0" y="0"> </tspan></text><text class="cls-1" transform="translate(470.08 814.28) rotate(170.7) scale(.9 1)"><tspan x="0" y="0"> </tspan></text><text class="cls-1" transform="translate(465.91 814.96) rotate(171.31) scale(.9 1)"><tspan x="0" y="0"> </tspan></text><text class="cls-1" transform="translate(461.77 815.59) rotate(171.9) scale(.9 1)"><tspan x="0" y="0"> </tspan></text><text class="cls-1" transform="translate(457.61 816.18) rotate(172.5) scale(.9 1)"><tspan x="0" y="0"> </tspan></text><text class="cls-1" transform="translate(453.42 816.73) rotate(173.1) scale(.9 1)"><tspan x="0" y="0"> </tspan></text><text class="cls-1" transform="translate(449.26 817.23) rotate(173.7) scale(.9 1)"><tspan x="0" y="0"> </tspan></text><text class="cls-1" transform="translate(445.06 817.7) rotate(174.3) scale(.9 1)"><tspan x="0" y="0"> </tspan></text><text class="cls-1" transform="translate(440.89 818.11) rotate(174.89) scale(.9 1)"><tspan x="0" y="0"> </tspan></text><text class="cls-1" transform="translate(436.71 818.48) rotate(175.48) scale(.9 1)"><tspan x="0" y="0"> </tspan></text><text class="cls-1" transform="translate(432.51 818.81) rotate(176.08) scale(.9 1)"><tspan x="0" y="0"> </tspan></text><text class="cls-1" transform="translate(428.31 819.1) rotate(176.67) scale(.9 1)"><tspan x="0" y="0"> </tspan></text><text class="cls-1" transform="translate(424.11 819.34) rotate(177.27) scale(.9 1)"><tspan x="0" y="0"> </tspan></text><text class="cls-1" transform="translate(419.9 819.54) rotate(177.86) scale(.9 1)"><tspan x="0" y="0"> </tspan></text><text class="cls-1" transform="translate(415.7 819.7) rotate(178.45) scale(.9 1)"><tspan x="0" y="0"> </tspan></text><text class="cls-1" transform="translate(411.49 819.81) rotate(179.04) scale(.9 1)"><tspan x="0" y="0"> </tspan></text><text class="cls-1" transform="translate(407.26 819.86) rotate(179.07) scale(.9 1)"><tspan x="0" y="0"> </tspan></text><text class="cls-1" transform="translate(403.11 819.93) rotate(-179.07) scale(.9 1)"><tspan x="0" y="0"> </tspan><tspan x="4.7" y="-.03"> </tspan></text><text class="cls-1" transform="translate(394.67 819.83) rotate(-178.62) scale(.9 1)"><tspan x="0" y="0"> </tspan></text><text class="cls-1" transform="translate(390.47 819.73) rotate(-178.03) scale(.9 1)"><tspan x="0" y="0"> </tspan></text><text class="cls-1" transform="translate(386.27 819.58) rotate(-177.44) scale(.9 1)"><tspan x="0" y="0"> </tspan></text><text class="cls-1" transform="translate(382.05 819.39) rotate(-176.84) scale(.9 1)"><tspan x="0" y="0"> </tspan></text><text class="cls-1" transform="translate(377.88 819.16) rotate(-176.25) scale(.9 1)"><tspan x="0" y="0"> </tspan></text><text class="cls-1" transform="translate(373.68 818.88) rotate(-175.66) scale(.9 1)"><tspan x="0" y="0"> </tspan></text><text class="cls-1" transform="translate(369.49 818.56) rotate(-175.07) scale(.9 1)"><tspan x="0" y="0"> </tspan></text><text class="cls-1" transform="translate(365.29 818.2) rotate(-174.47) scale(.9 1)"><tspan x="0" y="0"> </tspan></text><text class="cls-1" transform="translate(361.11 817.79) rotate(-173.87) scale(.9 1)"><tspan x="0" y="0"> </tspan></text><text class="cls-1" transform="translate(356.91 817.34) rotate(-173.27) scale(.9 1)"><tspan x="0" y="0"> </tspan></text><text class="cls-1" transform="translate(352.73 816.85) rotate(-172.68) scale(.9 1)"><tspan x="0" y="0"> </tspan></text><text class="cls-1" transform="translate(348.57 816.31) rotate(-172.08) scale(.9 1)"><tspan x="0" y="0"> </tspan></text><text class="cls-1" transform="translate(344.42 815.73) rotate(-171.48) scale(.9 1)"><tspan x="0" y="0"> </tspan></text><text class="cls-1" transform="translate(340.24 815.1) rotate(-170.88) scale(.9 1)"><tspan x="0" y="0"> </tspan></text><text class="cls-1" transform="translate(336.09 814.44) rotate(-170.28) scale(.9 1)"><tspan x="0" y="0"> </tspan></text><text class="cls-1" transform="translate(331.96 813.73) rotate(-169.68) scale(.9 1)"><tspan x="0" y="0"> </tspan></text><text class="cls-1" transform="translate(327.83 812.97) rotate(-169.08) scale(.9 1)"><tspan x="0" y="0"> </tspan></text><text class="cls-1" transform="translate(323.67 812.17) rotate(-168.47) scale(.9 1)"><tspan x="0" y="0"> </tspan></text><text class="cls-1" transform="translate(319.56 811.33) rotate(-167.87) scale(.9 1)"><tspan x="0" y="0"> </tspan></text><text class="cls-1" transform="translate(315.45 810.45) rotate(-167.27) scale(.9 1)"><tspan x="0" y="0"> </tspan></text><text class="cls-1" transform="translate(311.36 809.52) rotate(-166.67) scale(.9 1)"><tspan x="0" y="0"> </tspan></text><text class="cls-1" transform="translate(307.26 808.55) rotate(-166.07) scale(.9 1)"><tspan x="0" y="0"> </tspan></text><text class="cls-1" transform="translate(303.18 807.53) rotate(-165.47) scale(.9 1)"><tspan x="0" y="0"> </tspan></text><text class="cls-1" transform="translate(299.12 806.48) rotate(-164.86) scale(.9 1)"><tspan x="0" y="0"> </tspan></text><text class="cls-1" transform="translate(295.03 805.37) rotate(-164.26) scale(.9 1)"><tspan x="0" y="0"> </tspan></text><text class="cls-1" transform="translate(291 804.23) rotate(-163.66) scale(.9 1)"><tspan x="0" y="0"> </tspan></text><text class="cls-1" transform="translate(286.95 803.04) rotate(-163.05) scale(.9 1)"><tspan x="0" y="0"> </tspan></text><text class="cls-1" transform="translate(282.95 801.82) rotate(-162.45) scale(.9 1)"><tspan x="0" y="0"> </tspan></text><text class="cls-1" transform="translate(278.94 800.55) rotate(-161.85) scale(.9 1)"><tspan x="0" y="0"> </tspan></text><text class="cls-1" transform="translate(274.94 799.24) rotate(-161.24) scale(.9 1)"><tspan x="0" y="0"> </tspan></text><text class="cls-1" transform="translate(270.96 797.89) rotate(-160.64) scale(.9 1)"><tspan x="0" y="0"> </tspan></text><text class="cls-1" transform="translate(266.99 796.49) rotate(-160.04) scale(.9 1)"><tspan x="0" y="0"> </tspan></text><text class="cls-1" transform="translate(263.03 795.05) rotate(-159.43) scale(.9 1)"><tspan x="0" y="0"> </tspan></text><text class="cls-1" transform="translate(259.11 793.58) rotate(-158.83) scale(.9 1)"><tspan x="0" y="0"> </tspan></text><text class="cls-1" transform="translate(255.17 792.05) rotate(-158.23) scale(.9 1)"><tspan x="0" y="0"> </tspan></text><text class="cls-1" transform="translate(251.27 790.49) rotate(-157.62) scale(.9 1)"><tspan x="0" y="0"> </tspan></text><text class="cls-1" transform="translate(247.39 788.89) rotate(-157.02) scale(.9 1)"><tspan x="0" y="0"> </tspan></text><text class="cls-1" transform="translate(243.51 787.25) rotate(-156.42) scale(.9 1)"><tspan x="0" y="0"> </tspan></text><text class="cls-1" transform="translate(239.66 785.56) rotate(-155.82) scale(.9 1)"><tspan x="0" y="0"> </tspan></text><text class="cls-1" transform="translate(235.82 783.84) rotate(-155.22) scale(.9 1)"><tspan x="0" y="0"> </tspan></text><text class="cls-1" transform="translate(232.01 782.08) rotate(-154.62) scale(.9 1)"><tspan x="0" y="0"> </tspan></text><text class="cls-1" transform="translate(228.22 780.28) rotate(-154.02) scale(.9 1)"><tspan x="0" y="0"> </tspan></text><text class="cls-1" transform="translate(224.41 778.42) rotate(-153.41) scale(.9 1)"><tspan x="0" y="0"> </tspan></text><text class="cls-1" transform="translate(220.66 776.54) rotate(-152.81) scale(.9 1)"><tspan x="0" y="0"> </tspan></text><text class="cls-1" transform="translate(216.92 774.62) rotate(-152.21) scale(.9 1)"><tspan x="0" y="0"> </tspan></text><text class="cls-1" transform="translate(213.2 772.66) rotate(-151.61) scale(.9 1)"><tspan x="0" y="0"> </tspan></text><text class="cls-1" transform="translate(209.5 770.66) rotate(-151.01) scale(.9 1)"><tspan x="0" y="0"> </tspan></text><text class="cls-1" transform="translate(205.83 768.62) rotate(-150.41) scale(.9 1)"><tspan x="0" y="0"> </tspan></text><text class="cls-1" transform="translate(202.16 766.54) rotate(-149.81) scale(.9 1)"><tspan x="0" y="0"> </tspan></text><text class="cls-1" transform="translate(198.52 764.42) rotate(-149.21) scale(.9 1)"><tspan x="0" y="0"> </tspan></text><text class="cls-1" transform="translate(194.92 762.27) rotate(-148.62) scale(.9 1)"><tspan x="0" y="0"> </tspan></text><text class="cls-1" transform="translate(191.34 760.09) rotate(-148.02) scale(.9 1)"><tspan x="0" y="0"> </tspan></text><text class="cls-1" transform="translate(187.77 757.86) rotate(-147.42) scale(.9 1)"><tspan x="0" y="0"> </tspan></text><text class="cls-1" transform="translate(184.23 755.59) rotate(-146.82) scale(.9 1)"><tspan x="0" y="0"> </tspan></text><text class="cls-1" transform="translate(180.71 753.29) rotate(-146.23) scale(.9 1)"><tspan x="0" y="0"> </tspan></text><text class="cls-1" transform="translate(177.22 750.95) rotate(-145.63) scale(.9 1)"><tspan x="0" y="0"> </tspan></text><text class="cls-1" transform="translate(173.74 748.57) rotate(-145.03) scale(.9 1)"><tspan x="0" y="0"> </tspan></text><text class="cls-1" transform="translate(170.28 746.15) rotate(-144.43) scale(.9 1)"><tspan x="0" y="0"> </tspan></text><text class="cls-1" transform="translate(166.87 743.7) rotate(-143.84) scale(.9 1)"><tspan x="0" y="0"> </tspan></text><text class="cls-1" transform="translate(163.48 741.22) rotate(-143.24) scale(.9 1)"><tspan x="0" y="0"> </tspan></text><text class="cls-1" transform="translate(160.12 738.71) rotate(-142.65) scale(.9 1)"><tspan x="0" y="0"> </tspan></text><text class="cls-1" transform="translate(156.75 736.14) rotate(-142.05) scale(.9 1)"><tspan x="0" y="0"> </tspan></text><text class="cls-1" transform="translate(153.45 733.56) rotate(-141.45) scale(.9 1)"><tspan x="0" y="0"> </tspan></text><text class="cls-1" transform="translate(150.17 730.95) rotate(-140.86) scale(.9 1)"><tspan x="0" y="0"> </tspan></text><text class="cls-1" transform="translate(146.89 728.28) rotate(-140.26) scale(.9 1)"><tspan x="0" y="0"> </tspan></text><text class="cls-1" transform="translate(143.67 725.6) rotate(-139.67) scale(.9 1)"><tspan x="0" y="0"> </tspan></text><text class="cls-1" transform="translate(140.46 722.9) rotate(-138.67) scale(.9 1)"><tspan x="0" y="0">P</tspan></text><text class="cls-1" transform="translate(133.09 716.42) rotate(-137.25) scale(.9 1)"><tspan x="0" y="0">R</tspan></text><text class="cls-1" transform="translate(125.48 709.41) rotate(-135.61) scale(.9 1)"><tspan x="0" y="0">O</tspan></text><text class="cls-1" transform="translate(116.37 700.48) rotate(-133.87) scale(.9 1)"><tspan x="0" y="0">C</tspan></text><text class="cls-1" transform="translate(108.13 691.87) rotate(-132.37) scale(.9 1)"><tspan x="0" y="0">E</tspan></text><text class="cls-1" transform="translate(101.84 684.98) rotate(-131.02) scale(.9 1)"><tspan x="0" y="0">S</tspan></text><text class="cls-1" transform="translate(95.5 677.69) rotate(-129.65) scale(.9 1)"><tspan x="0" y="0">S</tspan></text><text class="cls-1" transform="translate(89.33 670.2) rotate(-128.65) scale(.9 1)"><tspan x="0" y="0">I</tspan></text><text class="cls-1" transform="translate(86.5 666.72) rotate(-127.47) scale(.9 1)"><tspan x="0" y="0">N</tspan></text><text class="cls-1" transform="translate(79.13 657.11) rotate(-125.73) scale(.9 1)"><tspan x="0" y="0">G</tspan></text><text class="cls-1" transform="translate(71.91 646.99) rotate(-124.56) scale(.9 1)"><tspan x="0" y="0"> </tspan></text><text class="cls-1" transform="translate(69.53 643.53) rotate(-123.96) scale(.9 1)"><tspan x="0" y="0"> </tspan></text><text class="cls-1" transform="translate(67.18 640.04) rotate(-123.36) scale(.9 1)"><tspan x="0" y="0"> </tspan></text><text class="cls-1" transform="translate(64.87 636.53) rotate(-122.76) scale(.9 1)"><tspan x="0" y="0"> </tspan></text><polygon class="cls-2" points="791.25 410.23 766.8 412.57 780.35 423.44 791.25 410.23"/><polygon class="cls-2" points="394.23 26.42 396.57 50.87 407.44 37.32 394.23 26.42"/><polygon class="cls-2" points="10.42 423.44 34.87 421.1 21.32 410.23 10.42 423.44"/><polygon class="cls-2" points="407.44 807.24 405.1 782.8 394.23 796.35 407.44 807.24"/></g></svg>