<svg width="32" height="33" viewBox="0 0 32 33" fill="none" xmlns="http://www.w3.org/2000/svg">
<path d="M5 1.09909H27C29.6234 1.09909 31.75 3.22574 31.75 5.84909V27.8491C31.75 30.4724 29.6234 32.5991 27 32.5991H5C2.37665 32.5991 0.25 30.4724 0.25 27.8491V5.84909C0.25 3.22574 2.37665 1.09909 5 1.09909Z" stroke="white" stroke-opacity="0.2" stroke-width="0.5"/>
<path d="M22.606 26H9.394C8.071 26 7 24.929 7 23.606V10.394C7 9.07097 8.071 7.99997 9.394 7.99997H22.597C23.929 7.99997 25 9.07097 25 10.394V23.597C25 24.929 23.929 26 22.606 26Z" stroke="white" stroke-width="1.5" stroke-miterlimit="10" stroke-linecap="round" stroke-linejoin="round"/>
<path d="M19.6004 17C19.6004 18.989 17.9894 20.6 16.0004 20.6C14.0114 20.6 12.4004 18.989 12.4004 17C12.4004 15.011 14.0114 13.4 16.0004 13.4C17.9894 13.4 19.6004 15.011 19.6004 17Z" stroke="white" stroke-width="1.5" stroke-miterlimit="10" stroke-linecap="round" stroke-linejoin="round"/>
<path d="M22.3004 11.15C22.3004 11.402 22.1024 11.6 21.8504 11.6C21.5984 11.6 21.4004 11.402 21.4004 11.15C21.4004 10.898 21.5984 10.7 21.8504 10.7C22.1024 10.7 22.3004 10.898 22.3004 11.15Z" stroke="white" stroke-width="1.5" stroke-miterlimit="10" stroke-linecap="round" stroke-linejoin="round"/>
</svg>
