<svg width="32" height="33" viewBox="0 0 32 33" fill="none" xmlns="http://www.w3.org/2000/svg">
<path d="M5 1.09912H27C29.6234 1.09912 31.75 3.22577 31.75 5.84912V27.8491C31.75 30.4725 29.6234 32.5991 27 32.5991H5C2.37665 32.5991 0.25 30.4725 0.25 27.8491V5.84912C0.25 3.22577 2.37665 1.09912 5 1.09912Z" stroke="white" stroke-opacity="0.2" stroke-width="0.5"/>
<path d="M11.6 24.8491H8.2V14.1491H11.6V24.8491ZM9.9 12.6491C8.8 12.6491 8 11.8491 8 10.7491C8 9.64912 8.9 8.84912 9.9 8.84912C11 8.84912 11.8 9.64912 11.8 10.7491C11.8 11.8491 11 12.6491 9.9 12.6491ZM24 24.8491H20.6V19.0491C20.6 17.3491 19.9 16.8491 18.9 16.8491C17.9 16.8491 16.9 17.6491 16.9 19.1491V24.8491H13.5V14.1491H16.7V15.6491C17 14.9491 18.2 13.8491 19.9 13.8491C21.8 13.8491 23.8 14.9491 23.8 18.2491V24.8491H24Z" fill="white"/>
</svg>
