<?xml version="1.0" encoding="UTF-8"?><svg id="Layer_2" xmlns="http://www.w3.org/2000/svg" viewBox="0 0 1279.71 839.56"><defs><style>.cls-1{fill:#009d4c;stroke-width:0px;}</style></defs><g id="Layer_1-2"><rect class="cls-1" x="1101.27" y="1.77" width="74.36" height="120.15"/><rect class="cls-1" x="1101.27" y="371.7" width="74.36" height="120.15"/><rect class="cls-1" x="1205.35" y="1.77" width="74.36" height="120.15"/><rect class="cls-1" x="2.69" y="719.4" width="74.36" height="120.16"/><rect class="cls-1" x="106.77" y="719.4" width="74.36" height="120.16"/><path class="cls-1" d="M753.22,1.77l-420.7,1.57c-87.22-.1-158,77.18-158.09,172.62-.04,42.11,13.98,82.78,39.41,114.38l-1.45,2.56,1.88-2.02,13.98,15.22,195.23,213.78H0v120.2h605.76V203.27h-109.85v225.83l-194.17-212.6c-.63-.65-1.08-1.1-1.43-1.54-1.29-.96-2.4-2.18-3.28-3.59-.38-.37-.73-.76-1.06-1.17l-.52-.61c-7.16-9.39-11.05-21.25-11.01-33.48-.01-29.08,21.49-52.68,48.07-52.76l420.71-1.56V1.77Z"/><path class="cls-1" d="M1279.71,202.84h-142.76L929.85,0l-73.06,89.29,115.94,113.55h-285.44v436.8h109.84v-225.85l194.18,212.62c.5.47.98.98,1.43,1.51,1.27.99,2.38,2.2,3.28,3.59.38.36.73.74,1.06,1.16l.53.65c7.16,9.38,11.05,21.24,10.98,33.46,0,29.07-21.51,52.65-48.08,52.72H259.46v120.05h701.04c70.08.26,131.89-50.16,151.67-123.71,15.39-57,2.94-118.66-32.97-163.26l1.43-2.62-1.86,2.03-14-15.19-195.23-213.79h410.16v-120.17Z"/></g></svg>