<svg width="32" height="33" viewBox="0 0 32 33" fill="none" xmlns="http://www.w3.org/2000/svg">
<path d="M5 1.09912H27C29.6234 1.09912 31.75 3.22577 31.75 5.84912V27.8491C31.75 30.4725 29.6234 32.5991 27 32.5991H5C2.37665 32.5991 0.25 30.4725 0.25 27.8491V5.84912C0.25 3.22577 2.37665 1.09912 5 1.09912Z" stroke="white" stroke-opacity="0.2" stroke-width="0.5"/>
<path d="M23.6 12.9491C23.4 12.2491 22.9 11.7491 22.2 11.5491C21 11.2491 15.9 11.2491 15.9 11.2491C15.9 11.2491 10.9 11.2491 9.60001 11.5491C8.90001 11.7491 8.4 12.2491 8.2 12.9491C8 14.2491 8 16.8491 8 16.8491C8 16.8491 8 19.4491 8.3 20.7491C8.5 21.4491 9 21.9491 9.7 22.1491C10.9 22.4491 16 22.4491 16 22.4491C16 22.4491 21 22.4491 22.3 22.1491C23 21.9491 23.5 21.4491 23.7 20.7491C24 19.4491 24 16.8491 24 16.8491C24 16.8491 24 14.2491 23.6 12.9491ZM14.4 19.2491V14.4491L18.6 16.8491L14.4 19.2491Z" fill="white"/>
</svg>
