<svg width="52" height="31" viewBox="0 0 52 31" fill="none" xmlns="http://www.w3.org/2000/svg">
<path d="M51.3573 20.3239H50.722V16.0128L44.9071 3.03832H42.1218V2.38139C42.1218 1.06752 40.8513 0 39.2876 0C37.7239 0 36.4534 1.06752 36.4534 2.38139V3.03832H33.9613L29.0259 0.656934H9.28438L3.3717 9.4845V16.6697L1.90574 10.3878L0 10.7163L2.2478 20.3239H2.05234V26.3595H6.05928C6.01042 26.5237 6.01041 26.729 6.01041 26.8933C6.01041 29.0283 8.06275 30.7528 10.6037 30.7528C13.1447 30.7528 15.1971 29.0283 15.1971 26.8933C15.1971 26.729 15.1971 26.5237 15.1482 26.3595H16.321C16.2721 26.5237 16.2721 26.729 16.2721 26.8933C16.2721 29.0283 18.3244 30.7528 20.8654 30.7528C23.4064 30.7528 25.4588 29.0283 25.4588 26.8933C25.4588 26.688 25.4588 26.4827 25.4099 26.3185H32.9351H36.9421C36.8932 26.4827 36.8932 26.688 36.8932 26.8933C36.8932 29.0283 38.9455 30.7528 41.4865 30.7528C44.0275 30.7528 46.0798 29.0283 46.0798 26.8933C46.0798 26.688 46.0798 26.5237 46.031 26.3185H51.3573V20.3239ZM47.3503 13.1798H46.4708L42.6104 14.6989H39.0921V7.55475H44.8582L47.3503 13.1798ZM38.3592 2.42245C38.3592 2.01186 38.7501 1.6834 39.2387 1.6834C39.7274 1.6834 40.1183 2.01186 40.1183 2.42245V3.07938H38.3103V2.42245H38.3592ZM43.5877 4.72172L44.1252 5.91241H38.7501C37.8705 5.91241 37.1375 6.52829 37.1375 7.26734V15.0274C37.1375 15.7664 37.8705 16.3823 38.7501 16.3823H43.0991L46.9594 14.8632H48.1322L48.8163 16.3823V20.3239H34.9875V4.72172H43.5877ZM10.4083 2.34033H28.4884L32.7885 4.39325V20.2829H5.3263V9.93614L10.4083 2.34033ZM10.6037 29.0694C9.13779 29.0694 7.96502 28.084 7.96502 26.8522C7.96502 25.6205 9.13779 24.6351 10.6037 24.6351C12.0697 24.6351 13.2425 25.6205 13.2425 26.8522C13.2425 28.084 12.0697 29.0694 10.6037 29.0694ZM20.8654 29.0694C19.3995 29.0694 18.2267 28.084 18.2267 26.8522C18.2267 25.6205 19.3995 24.6351 20.8654 24.6351C22.3314 24.6351 23.5041 25.6205 23.5041 26.8522C23.5041 28.084 22.3314 29.0694 20.8654 29.0694ZM24.628 24.6351C23.7973 23.6497 22.4291 22.9927 20.8654 22.9927C19.3017 22.9927 17.8846 23.6497 17.0539 24.6761H14.3664C13.5357 23.6497 12.1674 22.9927 10.5549 22.9927C8.99119 22.9927 7.5741 23.6497 6.74339 24.6761H4.00694V22.0073H32.9351V24.6351H24.628ZM41.4865 29.0694C40.0206 29.0694 38.8478 28.084 38.8478 26.8522C38.8478 26.4827 38.9455 26.1542 39.141 25.8258C39.1899 25.7436 39.2387 25.6615 39.3365 25.5794C39.3365 25.5794 39.3365 25.5794 39.3853 25.5383C39.4342 25.4562 39.4831 25.4152 39.5808 25.3331L39.6297 25.292C39.6785 25.2099 39.7762 25.1688 39.874 25.1278L39.9228 25.0867C39.9717 25.0456 40.0694 25.0046 40.1183 24.9635C40.1672 24.9635 40.1672 24.9225 40.216 24.9225C40.2649 24.8814 40.3626 24.8814 40.4115 24.8403C40.4604 24.8403 40.4604 24.7993 40.5092 24.7993C40.6069 24.7582 40.7047 24.7582 40.8024 24.7172C40.8513 24.7172 40.9001 24.7172 40.9001 24.6761C40.949 24.6761 41.0467 24.6351 41.0956 24.6351C41.1445 24.6351 41.1933 24.6351 41.1933 24.6351C41.2911 24.6351 41.3888 24.6351 41.4377 24.6351H41.4865H41.5354C41.6331 24.6351 41.7309 24.6351 41.7797 24.6351C41.8286 24.6351 41.8774 24.6351 41.9263 24.6351C41.9752 24.6351 42.0729 24.6761 42.1218 24.6761C42.1706 24.6761 42.2195 24.6761 42.2195 24.7172C42.3172 24.7582 42.415 24.7582 42.5127 24.7993C42.5616 24.7993 42.6104 24.8403 42.6593 24.8403C42.7082 24.8814 42.757 24.8814 42.8059 24.9225C42.8548 24.9635 42.9036 24.9635 42.9525 25.0046C43.0013 25.0456 43.0502 25.0456 43.0991 25.0867C43.1479 25.1278 43.1968 25.1688 43.2457 25.2099C43.2945 25.2509 43.3434 25.292 43.3923 25.3331C43.4411 25.3741 43.4411 25.3741 43.49 25.4152C43.5389 25.4562 43.5877 25.4973 43.6366 25.5383C43.6366 25.5794 43.6855 25.5794 43.6855 25.6205C43.7343 25.7026 43.7832 25.7847 43.8321 25.8668C44.0275 26.1542 44.1252 26.5237 44.1252 26.8933C44.1252 28.084 42.9525 29.0694 41.4865 29.0694ZM49.4027 24.6761H45.2491C45.2003 24.6351 45.2003 24.594 45.1514 24.5529C45.1025 24.4708 45.0537 24.4298 44.956 24.3476C44.9071 24.3066 44.8582 24.2245 44.7605 24.1834C44.7116 24.1424 44.6628 24.1013 44.6139 24.0602C44.565 24.0192 44.4673 23.9371 44.4184 23.896C44.3696 23.8549 44.3207 23.8549 44.2718 23.8139C43.9786 23.6497 43.6855 23.4854 43.3923 23.3622C43.3434 23.3212 43.2457 23.3212 43.1968 23.2801C43.0991 23.2391 43.0502 23.2391 42.9525 23.198C42.8547 23.157 42.8059 23.157 42.7081 23.1159C42.6104 23.1159 42.5616 23.0748 42.4638 23.0748C42.3661 23.0748 42.2684 23.0338 42.1706 23.0338C42.1218 23.0338 42.024 22.9927 41.9752 22.9927C41.8286 22.9927 41.682 22.9927 41.5354 22.9517C41.4865 22.9517 41.4865 22.9517 41.4377 22.9517C41.3888 22.9517 41.3888 22.9517 41.3399 22.9517C41.1933 22.9517 41.0467 22.9517 40.9001 22.9927C40.8513 22.9927 40.7535 22.9927 40.7047 23.0338C40.607 23.0338 40.5092 23.0748 40.4115 23.0748C40.3138 23.0748 40.2649 23.1159 40.1672 23.1159C40.0694 23.1159 40.0206 23.157 39.9228 23.198C39.8251 23.2391 39.7762 23.2391 39.6785 23.2801C39.5808 23.3212 39.5319 23.3212 39.4342 23.3622C39.3365 23.4033 39.2876 23.4033 39.1899 23.4444C39.141 23.4854 39.0921 23.4854 39.0433 23.5265C38.8967 23.6086 38.7501 23.6907 38.6035 23.7728C38.5546 23.8139 38.5058 23.8549 38.408 23.896C38.3592 23.9371 38.2614 23.9781 38.2126 24.0602C38.1637 24.1013 38.066 24.1424 38.0171 24.2245C37.9682 24.2655 37.9194 24.3066 37.8705 24.3476C37.7728 24.4298 37.7239 24.5119 37.675 24.594C37.675 24.6351 37.6262 24.6351 37.6262 24.6761H34.792V21.9252H48.6208V21.9663H49.2561V24.6761H49.4027Z" fill="white"/>
<path d="M41.3892 17.3677H38.1152V19.01H41.3892V17.3677Z" fill="white"/>
<path d="M29.3677 5.87134H27.4131V17.1213H29.3677V5.87134Z" fill="white"/>
<path d="M23.3579 5.87134H21.4033V17.1213H23.3579V5.87134Z" fill="white"/>
<path d="M17.396 5.87134H15.4414V17.1213H17.396V5.87134Z" fill="white"/>
<path d="M11.4341 5.87134H9.47949V17.1213H11.4341V5.87134Z" fill="white"/>
</svg>
