<svg width="95" height="25" viewBox="0 0 95 25" fill="none" xmlns="http://www.w3.org/2000/svg">
<path d="M45.9748 15.7075V7.82139H44.6207C44.3539 7.82139 44.2213 8.0003 44.2213 8.35968V9.17559L42.4492 9.05374V6.1001H51.5331V9.05374L49.761 9.17559V8.35968C49.761 8.16225 49.7317 8.02344 49.6747 7.94324C49.6161 7.86303 49.4773 7.82139 49.2583 7.82139H48.0769V16.124L49.4495 16.1764V17.6525H44.5513V16.2458L45.472 16.1934C45.8082 16.1595 45.9764 15.996 45.9764 15.7075H45.9748Z" fill="#25734B"/>
<path d="M55.1831 8.65584C56.0514 8.65584 56.7408 8.86715 57.2497 9.28976C57.7587 9.71237 58.0147 10.3062 58.0147 11.0697C58.0147 11.5786 57.9052 12.0275 57.6847 12.4161C57.4641 12.8048 57.1927 13.1087 56.8688 13.3277C56.5449 13.5483 56.1501 13.7272 55.6874 13.866C54.9117 14.0973 54.0372 14.213 53.0641 14.213C53.0995 14.8269 53.2892 15.322 53.6378 15.6983C53.9848 16.0747 54.5184 16.2628 55.2356 16.2628C55.9527 16.2628 56.6714 16.0083 57.3885 15.4978L58.0486 16.9045C57.8173 17.1127 57.4256 17.3271 56.8765 17.5476C56.3259 17.7682 55.6982 17.8777 54.9919 17.8777C53.5792 17.8777 52.5428 17.4875 51.8827 16.7055C51.2226 15.9235 50.8926 14.85 50.8926 13.4835C50.8926 12.1169 51.2689 10.9709 52.0215 10.044C52.7741 9.11701 53.8275 8.6543 55.1831 8.6543V8.65584ZM54.3935 12.6244C54.8161 12.5488 55.2063 12.3807 55.5656 12.12C55.925 11.8594 56.1039 11.5493 56.1039 11.19C56.1039 10.4836 55.7568 10.1303 55.0613 10.1303C54.412 10.1303 53.9154 10.3879 53.5668 10.9031C53.2198 11.4182 53.0286 12.0352 52.9931 12.7524C53.5021 12.7416 53.9678 12.6969 54.392 12.6228L54.3935 12.6244Z" fill="#25734B"/>
<path d="M61.4962 8.91642V18.0704C61.4962 18.9974 61.3451 19.7501 61.0444 20.3284C60.6619 21.0225 59.8861 21.3711 58.7171 21.3711C57.8827 21.3711 57.1425 21.169 56.4932 20.7634L57.1178 19.3213C57.5697 19.565 57.983 19.6868 58.3593 19.6868C58.7356 19.6868 59.007 19.5711 59.1751 19.3398C59.3433 19.1084 59.4265 18.7151 59.4265 18.1583V10.8968C59.4265 10.7117 59.3941 10.5837 59.3309 10.5143C59.2677 10.4449 59.1536 10.4048 58.9916 10.3925L58.384 10.357V8.91488H61.4932L61.4962 8.91642ZM59.3078 7.4126C59.0641 7.17508 58.9423 6.87123 58.9423 6.50106C58.9423 6.13089 59.0641 5.82087 59.3078 5.57101C59.5515 5.32269 59.8692 5.19775 60.2624 5.19775C60.6557 5.19775 60.9765 5.32269 61.2263 5.57101C61.4746 5.82087 61.5996 6.12935 61.5996 6.50106C61.5996 6.87277 61.4746 7.17508 61.2263 7.4126C60.9765 7.65013 60.6557 7.76889 60.2624 7.76889C59.8692 7.76889 59.5499 7.65013 59.3078 7.4126Z" fill="#25734B"/>
<path d="M66.7108 8.65593C67.2089 8.65593 67.6839 8.72534 68.1358 8.86415V7.10893C68.1358 6.85444 67.9847 6.71562 67.6839 6.69249L66.9375 6.64005V5.26733H70.1685V15.8295C70.1793 16.0963 70.3243 16.229 70.6034 16.229L71.2111 16.2645V17.6541H68.3965V16.6285L68.344 16.6115C67.8227 17.4567 67.0346 17.8793 65.9813 17.8793C64.6611 17.8793 63.7342 17.4398 63.2021 16.5591C62.7163 15.7601 62.4727 14.7822 62.4727 13.6239C62.4727 12.1186 62.8459 10.914 63.5923 10.0101C64.3388 9.1063 65.3783 8.65439 66.7108 8.65439V8.65593ZM68.1358 14.9442V10.4451C67.7194 10.26 67.2783 10.1675 66.8156 10.1675C66.0507 10.1675 65.4924 10.4744 65.1392 11.0883C64.786 11.7021 64.6087 12.4841 64.6087 13.4327C64.6087 15.3776 65.2333 16.3508 66.4841 16.3508C66.9591 16.3508 67.3523 16.2151 67.6654 15.9421C67.9785 15.6707 68.1343 15.3375 68.1343 14.9427L68.1358 14.9442Z" fill="#25734B"/>
<path d="M75.6011 8.65584C76.4694 8.65584 77.1588 8.86715 77.6677 9.28976C78.1767 9.71237 78.4327 10.3062 78.4327 11.0697C78.4327 11.5786 78.3232 12.0275 78.1026 12.4161C77.8821 12.8048 77.6107 13.1087 77.2868 13.3277C76.9629 13.5483 76.5681 13.7272 76.1054 13.866C75.3297 14.0973 74.4552 14.213 73.482 14.213C73.5175 14.8269 73.7072 15.322 74.0558 15.6983C74.4028 16.0747 74.9364 16.2628 75.6535 16.2628C76.3707 16.2628 77.0894 16.0083 77.8065 15.4978L78.4666 16.9045C78.2353 17.1127 77.8435 17.3271 77.2945 17.5476C76.7439 17.7682 76.1162 17.8777 75.4099 17.8777C73.9971 17.8777 72.9608 17.4875 72.3007 16.7055C71.6406 15.9235 71.3105 14.85 71.3105 13.4835C71.3105 12.1169 71.6869 10.9709 72.4395 10.044C73.1921 9.11701 74.2455 8.6543 75.6011 8.6543V8.65584ZM74.8115 12.6244C75.234 12.5488 75.6242 12.3807 75.9836 12.12C76.3429 11.8594 76.5218 11.5493 76.5218 11.19C76.5218 10.4836 76.1748 10.1303 75.4793 10.1303C74.83 10.1303 74.3334 10.3879 73.9848 10.9031C73.6378 11.4182 73.4466 12.0352 73.4111 12.7524C73.92 12.7416 74.3858 12.6969 74.8099 12.6228L74.8115 12.6244Z" fill="#25734B"/>
<path d="M83.0659 8.65584C83.9342 8.65584 84.6236 8.86715 85.1326 9.28976C85.6415 9.71237 85.8975 10.3062 85.8975 11.0697C85.8975 11.5786 85.788 12.0275 85.5675 12.4161C85.3469 12.8048 85.0755 13.1087 84.7516 13.3277C84.4278 13.5483 84.0329 13.7272 83.5703 13.866C82.7945 14.0973 81.92 14.213 80.9469 14.213C80.9824 14.8269 81.1721 15.322 81.5206 15.6983C81.8676 16.0747 82.4012 16.2628 83.1184 16.2628C83.8355 16.2628 84.5542 16.0083 85.2714 15.4978L85.9314 16.9045C85.7001 17.1127 85.3084 17.3271 84.7593 17.5476C84.2088 17.7682 83.581 17.8777 82.8747 17.8777C81.462 17.8777 80.4256 17.4875 79.7655 16.7055C79.1054 15.9235 78.7754 14.85 78.7754 13.4835C78.7754 12.1169 79.1517 10.9709 79.9043 10.044C80.6569 9.11701 81.7103 8.6543 83.0659 8.6543V8.65584ZM82.2748 12.6244C82.6973 12.5488 83.0875 12.3807 83.4469 12.12C83.8062 11.8594 83.9851 11.5493 83.9851 11.19C83.9851 10.4836 83.6381 10.1303 82.9426 10.1303C82.2933 10.1303 81.7967 10.3879 81.4481 10.9031C81.1011 11.4182 80.9099 12.0352 80.8744 12.7524C81.3833 12.7416 81.8491 12.6969 82.2732 12.6228L82.2748 12.6244Z" fill="#25734B"/>
<path d="M90.4998 8.65593C90.998 8.65593 91.473 8.72534 91.9249 8.86415V7.10893C91.9249 6.85444 91.7737 6.71562 91.473 6.69249L90.7265 6.64005V5.26733H93.9576V15.8295C93.9684 16.0963 94.1133 16.229 94.3925 16.229L95.0001 16.2645V17.6541H92.1855V16.6285L92.1331 16.6115C91.6118 17.4567 90.8237 17.8793 89.7703 17.8793C88.4502 17.8793 87.5233 17.4398 86.9912 16.5591C86.5054 15.7601 86.2617 14.7822 86.2617 13.6239C86.2617 12.1186 86.6349 10.914 87.3814 10.0101C88.1278 9.1063 89.1673 8.65439 90.4998 8.65439V8.65593ZM91.9249 14.9442V10.4451C91.5085 10.26 91.0674 10.1675 90.6047 10.1675C89.8397 10.1675 89.2814 10.4744 88.9283 11.0883C88.5751 11.7021 88.3977 12.4841 88.3977 13.4327C88.3977 15.3776 89.0224 16.3508 90.2731 16.3508C90.7481 16.3508 91.1414 16.2151 91.4545 15.9421C91.7676 15.6707 91.9233 15.3375 91.9233 14.9427L91.9249 14.9442Z" fill="#25734B"/>
<path d="M71.5718 5.46165V4.53777H73.9037V3.61388C73.8975 3.20515 73.8066 2.90131 73.6292 2.69925C73.4518 2.4972 73.2112 2.39695 72.9074 2.39695C72.6036 2.39695 72.2612 2.54656 71.9204 2.84578L71.4639 2.04992C71.9096 1.66586 72.4 1.47461 72.9367 1.47461C73.4734 1.47461 73.9669 1.66741 74.3448 2.05454C74.7226 2.44168 74.9123 2.96454 74.9123 3.62314V4.53777H75.5524V5.46165H71.5749H71.5718Z" fill="#25734B"/>
<path d="M75.3745 7.11177C75.2588 6.99917 75.2002 6.86345 75.2002 6.70458C75.2002 6.54572 75.2588 6.40073 75.3745 6.28814C75.4901 6.17555 75.6274 6.11848 75.7862 6.11848C75.9451 6.11848 76.0808 6.17555 76.1934 6.28814C76.306 6.40073 76.3631 6.53955 76.3631 6.70458C76.3631 6.86961 76.306 6.99917 76.1934 7.11177C76.0808 7.22436 75.9451 7.28143 75.7862 7.28143C75.6274 7.28143 75.4901 7.22436 75.3745 7.11177ZM75.4115 4.53754H76.5358C76.6761 4.53754 76.7455 4.44654 76.7455 4.263V1.71191H77.7511V4.14424C77.7326 5.02185 77.4072 5.46143 76.7733 5.46143H75.4115V4.53754ZM76.7101 7.11177C76.5944 6.99917 76.5358 6.86345 76.5358 6.70458C76.5358 6.54572 76.5944 6.40073 76.7101 6.28814C76.8257 6.17555 76.963 6.11848 77.1218 6.11848C77.2807 6.11848 77.4164 6.17555 77.529 6.28814C77.6416 6.40073 77.6986 6.53955 77.6986 6.70458C77.6986 6.86961 77.6416 6.99917 77.529 7.11177C77.4164 7.22436 77.2807 7.28143 77.1218 7.28143C76.963 7.28143 76.8257 7.22436 76.7101 7.11177Z" fill="#25734B"/>
<path d="M78.3707 5.46165V4.53777H80.7025V3.61388C80.6964 3.20515 80.6054 2.90131 80.428 2.69925C80.2507 2.4972 80.0101 2.39695 79.7062 2.39695C79.4024 2.39695 79.06 2.54656 78.7192 2.84578L78.2627 2.04992C78.7084 1.66586 79.1988 1.47461 79.7355 1.47461C80.2723 1.47461 80.7658 1.66741 81.1436 2.05454C81.5215 2.44168 81.7112 2.96454 81.7112 3.62314V4.53777H82.3512V5.46165H78.3737H78.3707Z" fill="#25734B"/>
<path d="M82.2129 5.46142V4.53754H85.7061V4.11647C85.7061 3.65993 85.5812 3.27742 85.3313 2.97357C85.0506 2.64967 84.679 2.48927 84.2163 2.48927C83.8508 2.48927 83.5099 2.60803 83.1922 2.84555C83.0827 2.92422 82.9732 3.03681 82.8622 3.18333L82.2946 2.48001C82.782 1.85843 83.4189 1.54688 84.2055 1.54688C84.9427 1.54688 85.5503 1.81833 86.0253 2.36125C86.4649 2.89183 86.6839 3.55967 86.6839 4.36325V4.53754H87.1867V5.46142H82.2129ZM84.6728 7.21202C84.5571 7.09942 84.4985 6.96369 84.4985 6.80483C84.4985 6.64597 84.5571 6.50098 84.6728 6.38839C84.7885 6.27579 84.9257 6.21873 85.0846 6.21873C85.2434 6.21873 85.3791 6.27579 85.4917 6.38839C85.6043 6.50098 85.6614 6.6398 85.6614 6.80483C85.6614 6.96986 85.6043 7.09942 85.4917 7.21202C85.3791 7.32461 85.2434 7.38168 85.0846 7.38168C84.9257 7.38168 84.7885 7.32461 84.6728 7.21202Z" fill="#25734B"/>
<path d="M87.0508 4.53767H88.1751C88.3154 4.53767 88.3848 4.44667 88.3848 4.26312V1.71204H89.3904V4.14436C89.3719 5.02197 89.0465 5.46155 88.4126 5.46155H87.0508V4.53767ZM87.242 0.993289C87.1264 0.880696 87.0677 0.744967 87.0677 0.586102C87.0677 0.427238 87.1264 0.282255 87.242 0.169661C87.3577 0.0570679 87.4949 0 87.6538 0C87.8127 0 87.9484 0.0570679 88.061 0.169661C88.1735 0.282255 88.2306 0.421068 88.2306 0.586102C88.2306 0.751136 88.1735 0.880696 88.061 0.993289C87.9484 1.10588 87.8127 1.16295 87.6538 1.16295C87.4949 1.16295 87.3577 1.10588 87.242 0.993289ZM88.5776 0.993289C88.4619 0.880696 88.4033 0.744967 88.4033 0.586102C88.4033 0.427238 88.4619 0.282255 88.5776 0.169661C88.6933 0.0570679 88.8305 0 88.9894 0C89.1482 0 89.284 0.0570679 89.3966 0.169661C89.5091 0.282255 89.5662 0.421068 89.5662 0.586102C89.5662 0.751136 89.5091 0.880696 89.3966 0.993289C89.284 1.10588 89.1482 1.16295 88.9894 1.16295C88.8305 1.16295 88.6933 1.10588 88.5776 0.993289Z" fill="#25734B"/>
<path d="M33.6851 0.175781H31.5537V3.61836H33.6851V0.175781Z" fill="#25734B"/>
<path d="M33.6836 10.7766H31.5537V14.2192H33.6836V10.7766Z" fill="#25734B"/>
<path d="M36.6685 0.175781H34.5371V3.61836H36.6685V0.175781Z" fill="#25734B"/>
<path d="M2.20854 20.7402H0.0771484V24.1828H2.20854V20.7402Z" fill="#25734B"/>
<path d="M5.19096 20.7402H3.05957V24.1828H5.19096V20.7402Z" fill="#25734B"/>
<path d="M21.5823 0.175781L9.52804 0.22051C7.02959 0.217425 5.00153 2.43228 4.99844 5.16691C4.99844 6.37304 5.39943 7.53908 6.12737 8.44445L6.08573 8.51694L6.13971 8.45833L6.5407 8.89482L12.1344 15.0211H0V18.4653H17.3565V5.95043H14.2088V12.4222L8.64587 6.32986C8.62736 6.31135 8.61503 6.29901 8.60423 6.28513C8.56722 6.25736 8.53483 6.22343 8.51015 6.18179C8.49936 6.17099 8.48856 6.16019 8.47931 6.14786L8.46389 6.13089C8.25877 5.86097 8.14772 5.52165 8.14772 5.17153C8.14772 4.33865 8.76308 3.66155 9.52496 3.66001L21.5792 3.61528V0.175781H21.5823Z" fill="#25734B"/>
<path d="M36.667 5.93821H32.5769L26.6424 0.125L24.5495 2.6838L27.8715 5.93821H19.693V18.4546H22.8407V11.9828L28.4051 18.0752C28.419 18.089 28.4329 18.1029 28.4468 18.1183C28.4838 18.1461 28.5147 18.1816 28.5409 18.2217C28.5517 18.2325 28.5625 18.2433 28.5717 18.2541L28.5871 18.2726C28.7923 18.541 28.9033 18.8818 28.9018 19.2319C28.9018 20.0648 28.2849 20.7404 27.5245 20.7419H7.43359V24.1814H27.5199C29.5279 24.1891 31.2984 22.7439 31.866 20.637C32.3071 19.0037 31.9508 17.2361 30.9206 15.959L30.9622 15.8834L30.9098 15.9421L30.5088 15.5071L24.915 9.38079H36.667V5.93667V5.93821Z" fill="#25734B"/>
</svg>
