<svg width="62" height="40" viewBox="0 0 62 40" fill="none" xmlns="http://www.w3.org/2000/svg">
<g clip-path="url(#clip0_374_1159)">
<path d="M56.9594 0.0847168H53.3555V5.80853H56.9594V0.0847168Z" fill="white"/>
<path d="M56.9568 17.71H53.3555V23.4338H56.9568V17.71Z" fill="white"/>
<path d="M62.0024 0.0847168H58.3984V5.80853H62.0024V0.0847168Z" fill="white"/>
<path d="M36.4933 0.0847168L16.1109 0.159085C11.8863 0.153956 8.45704 3.83648 8.45182 8.38322C8.45182 10.3886 9.12984 12.3273 10.3607 13.8326L10.2903 13.9532L10.3816 13.8557L11.0596 14.5814L20.518 24.7674H0V30.4937H29.348V9.68338H24.0255V20.4437L14.6192 10.3142C14.5879 10.2835 14.5671 10.2629 14.5488 10.2399C14.4862 10.1937 14.4315 10.1373 14.3897 10.068C14.3715 10.0501 14.3532 10.0321 14.3376 10.0116L14.3115 9.98342C13.9647 9.53465 13.7769 8.97047 13.7769 8.38834C13.7769 7.00355 14.8174 5.87777 16.1057 5.8752L36.4881 5.80083V0.0847168H36.4933Z" fill="white"/>
<path d="M61.9998 9.66278H55.084L45.0493 0L41.5105 4.25439L47.1277 9.66534H33.2986V30.4757H38.6211V19.7153L48.0299 29.8449C48.0534 29.8679 48.0769 29.891 48.1004 29.9167C48.1629 29.9628 48.2151 30.0218 48.2594 30.0885C48.2777 30.1064 48.2959 30.1244 48.3116 30.1423L48.3377 30.1731C48.6845 30.6193 48.8723 31.1861 48.8697 31.7682C48.8697 33.153 47.8265 34.2762 46.5409 34.2788H12.5693V39.9974H46.5331C49.9284 40.0103 52.9221 37.6074 53.8818 34.1044C54.6276 31.3886 54.0252 28.4498 52.2832 26.3265L52.3536 26.2008L52.265 26.2982L51.587 25.5751L42.1285 15.3892H61.9998V9.66278Z" fill="white"/>
</g>
<defs>
<clipPath id="clip0_374_1159">
<rect width="62" height="40" fill="white"/>
</clipPath>
</defs>
</svg>
