<svg width="52" height="52" viewBox="0 0 52 52" fill="none" xmlns="http://www.w3.org/2000/svg">
<g clip-path="url(#clip0_221_60)">
<path d="M35.0526 45.0929C32.214 46.441 29.1683 47.125 26 47.125C14.3517 47.125 4.875 37.648 4.875 26C4.875 21.0028 6.59279 16.2841 9.75 12.5001V16.25H13V6.5H3.25V9.75H7.8676C3.84524 14.2251 1.625 19.9261 1.625 26C1.625 39.4404 12.5596 50.375 26 50.375C29.6546 50.375 33.1693 49.5856 36.4474 48.0288L35.0526 45.0929Z" fill="white"/>
<path d="M34.125 14.625C28.9897 14.625 24.7788 18.6176 24.4111 23.6608C22.6798 22.0914 20.391 21.125 17.875 21.125H11.375V27.625C11.375 33.0015 15.749 37.375 21.125 37.375H24.375V43.875H27.625V30.8742L30.875 30.875C36.251 30.875 40.625 26.5015 40.625 21.125V14.625H34.125ZM21.125 34.125C17.5409 34.125 14.625 31.2091 14.625 27.625V24.375H17.875C21.4591 24.375 24.375 27.2909 24.375 30.875V31.8271L20.6489 28.101L18.351 30.3989L22.0771 34.125H21.125ZM37.375 21.125C37.375 24.7091 34.4591 27.625 30.875 27.625H29.9229L33.649 23.8989L31.3511 21.601L27.625 25.3271V24.375C27.625 20.7909 30.5409 17.875 34.125 17.875H37.375V21.125Z" fill="white"/>
<path d="M50.3752 26C50.3752 12.5596 39.4406 1.625 26.0002 1.625C22.3456 1.625 18.8308 2.41442 15.5527 3.97117L16.9476 6.9069C19.7862 5.5588 22.8319 4.87484 26.0002 4.87484C37.6485 4.87484 47.1252 14.3518 47.1252 25.9998C47.1252 30.997 45.4074 35.7157 42.2502 39.4997V35.7498H39.0002V45.4998H48.7502V42.2498H44.1326C48.1549 37.7747 50.3752 32.0739 50.3752 26Z" fill="white"/>
</g>
<defs>
<clipPath id="clip0_221_60">
<rect width="52" height="52" fill="white"/>
</clipPath>
</defs>
</svg>
