<svg width="53" height="39" viewBox="0 0 53 39" fill="none" xmlns="http://www.w3.org/2000/svg">
<path d="M53 2.18522L51.379 1.82101C47.0562 0.864981 42.1931 2.8681 39.6534 4.14281L41.1124 0L39.4373 0.864981C37.6001 1.77549 36.2492 3.2323 35.3306 4.41596L35.1145 2.18522L33.9257 3.27782C32.3047 4.73463 31.3321 7.23853 30.9538 8.37666C28.7384 7.3751 26.3068 7.28405 23.7672 8.01246C17.3911 9.83347 11.4473 16.7988 7.55678 22.2619C3.234 28.3168 0.262093 34.3716 0.0459544 35.6008C-0.11615 36.6024 0.154024 37.4673 0.802441 38.0136C1.28875 38.4234 2.09927 38.651 3.01786 38.651C3.234 38.651 3.45014 38.651 3.66628 38.6055C5.17925 38.4234 12.3118 35.9195 19.4985 32.323C26.0367 29.0452 34.2499 24.0374 36.4113 18.6654C37.2759 16.4802 37.1138 14.4315 35.925 12.5195C39.6534 11.6545 44.7867 9.42374 45.0569 9.33269L49.0014 7.60273L42.7874 8.33113L53 2.18522ZM34.6822 18.2101C33.5475 20.9872 30.5756 23.7187 27.0093 26.1315L22.5784 22.3985L21.2816 23.4911L25.5504 27.0876C23.9833 28.0891 22.3623 28.9996 20.7953 29.8646L19.1202 28.4533L17.8234 29.5459L19.1743 30.6841C18.9581 30.7751 18.742 30.9117 18.5258 31.0027C11.1771 34.7358 4.42277 36.9666 3.39611 37.1031C2.63962 37.1942 2.20734 37.0121 2.09927 36.921C1.99121 36.83 1.77507 36.4658 1.88314 35.8284C1.99121 35.2821 3.01786 32.9148 4.90908 29.6825L5.44943 30.1378L6.74626 29.0452L5.77364 28.2257C6.74626 26.6323 7.82696 24.9024 9.12379 23.0813C9.66414 22.2619 10.3126 21.4424 10.961 20.623L13.3385 22.6261L14.6353 21.5335L11.9336 19.2572C13.5546 17.2541 15.3378 15.2965 17.283 13.6121L22.5784 18.0736L23.8753 16.9809L18.5799 12.5195C20.417 11.1082 22.3623 9.97005 24.3076 9.42374C25.2261 9.15059 26.0907 9.05954 26.9012 9.05954C28.9005 9.05954 30.7377 9.78794 32.5208 11.2903C35.0064 13.3844 35.7089 15.6607 34.6822 18.2101ZM35.0605 11.3813C34.6822 10.9716 34.304 10.5619 33.8177 10.1977C33.3314 9.78794 32.791 9.42374 32.3047 9.10507C32.4668 8.60429 33.0071 6.96537 33.8717 5.59962L34.2499 9.56032L35.4927 6.96537C35.4927 6.91985 36.4654 4.87121 38.3566 3.2323L36.8976 7.3751L38.7348 6.19144C38.7889 6.14592 44.1923 2.82257 49.1635 2.8681L36.7896 10.3342L39.7615 9.97005C38.1945 10.5619 36.4654 11.1082 35.0605 11.3813Z" fill="white"/>
</svg>
