<svg width="32" height="33" viewBox="0 0 32 33" fill="none" xmlns="http://www.w3.org/2000/svg">
<path d="M5 1.09912H27C29.6234 1.09912 31.75 3.22577 31.75 5.84912V27.8491C31.75 30.4725 29.6234 32.5991 27 32.5991H5C2.37665 32.5991 0.25 30.4725 0.25 27.8491V5.84912C0.25 3.22577 2.37665 1.09912 5 1.09912Z" stroke="white" stroke-opacity="0.2" stroke-width="0.5"/>
<path d="M24 16.8491C24 12.4491 20.4 8.84912 16 8.84912C11.6 8.84912 8 12.4491 8 16.8491C8 20.8491 10.9 24.1491 14.7 24.7491V19.1491H12.7V16.8491H14.7V15.0491C14.7 13.0491 15.9 11.9491 17.7 11.9491C18.6 11.9491 19.5 12.1491 19.5 12.1491V14.1491H18.5C17.5 14.1491 17.2 14.7491 17.2 15.3491V16.8491H19.4L19 19.1491H17.1V24.8491C21.1 24.2491 24 20.8491 24 16.8491Z" fill="white"/>
</svg>
