<svg width="64" height="27" viewBox="0 0 64 27" fill="none" xmlns="http://www.w3.org/2000/svg">
<path fill-rule="evenodd" clip-rule="evenodd" d="M48.3259 10.2851L47.2585 13.6601C46.694 13.7271 46.145 13.8462 45.6179 14.008C44.3243 13.2061 42.7847 12.7224 41.1287 12.6685C38.8249 10.3261 35.5151 8.86556 31.8452 8.86556C28.1752 8.86556 24.8655 10.3261 22.5616 12.6685C20.9057 12.7224 19.3661 13.2061 18.0703 14.008C17.2072 13.7401 16.2825 13.595 15.3228 13.595C11.8593 13.595 8.84604 15.4853 7.47118 18.2407C3.58382 18.6333 0.449768 21.4166 0.0061256 25.0204C-0.0268182 25.2827 0.0742092 25.5432 0.282853 25.7404C0.489301 25.9358 0.785795 26.0474 1.09766 26.0474H62.5927C62.9046 26.0474 63.2011 25.9358 63.4075 25.7404C63.6162 25.5432 63.7172 25.2827 63.6842 25.0204C63.2406 21.4147 60.1043 18.6314 56.217 18.2407C55.0003 15.7997 52.4965 14.0378 49.5294 13.6676L50.4474 10.767C50.6693 10.9065 50.9108 11.0331 51.17 11.1428C52.5031 11.7122 54.2711 11.8666 55.5537 11.5763C58.5867 10.8879 63.6711 6.71853 63.6711 6.71853C63.9544 6.48411 64.0642 6.13991 63.9632 5.81618C63.8599 5.49059 63.5591 5.23942 63.1769 5.1557C63.1769 5.1557 56.3136 3.69891 53.2784 4.3873C52.9819 4.45614 52.6766 4.55475 52.3735 4.67941L52.9555 2.83564C53.1137 2.33888 52.7645 1.8291 52.1803 1.697C51.5939 1.56304 50.9921 1.85887 50.834 2.35376L50.252 4.19939C50.0631 3.96125 49.8566 3.74543 49.6392 3.56124C47.4188 1.68026 40.6148 0.0336998 40.6148 0.0336998C40.2327 -0.0556049 39.8242 0.0355608 39.5452 0.271846C39.2641 0.509992 39.1565 0.856048 39.2619 1.17978C39.2619 1.17978 41.2056 6.94179 43.426 8.82463C44.3638 9.61907 45.989 10.233 47.4781 10.3056C47.768 10.3186 48.0513 10.313 48.3259 10.2851ZM2.41761 24.1869C3.1841 21.8296 5.50115 20.1124 8.27501 20.0547C8.73623 20.0454 9.14253 19.7924 9.28968 19.4221C10.2055 17.1225 12.5489 15.4555 15.3228 15.4555C16.1947 15.4555 17.0271 15.6211 17.7848 15.9188C18.1735 16.0732 18.6347 16.0192 18.962 15.783C20.0425 14.996 21.3976 14.5252 22.8713 14.5252C22.9328 14.5252 22.9943 14.5253 23.0558 14.5271C23.4094 14.5364 23.7476 14.4006 23.9628 14.1624C25.8582 12.0675 28.6848 10.7261 31.8452 10.7261C35.0056 10.7261 37.8322 12.0675 39.7275 14.1624C39.9428 14.4006 40.281 14.5364 40.6346 14.5271C40.6961 14.5253 40.7576 14.5252 40.8191 14.5252C42.2927 14.5252 43.6478 14.996 44.7284 15.783C45.0556 16.0192 45.5168 16.0732 45.9056 15.9188C46.6633 15.6211 47.4957 15.4555 48.3676 15.4555C51.1414 15.4555 53.4848 17.1225 54.4007 19.4221C54.5478 19.7924 54.9541 20.0454 55.4154 20.0547C58.1892 20.1124 60.5063 21.8296 61.2728 24.1869H2.41761ZM43.6281 21.1933C44.1112 20.7561 44.5571 20.4715 45.0381 20.4659C45.5059 20.4603 45.9319 20.7282 46.3975 21.1729C46.7995 21.558 47.4935 21.5933 47.9481 21.2529C48.4005 20.9124 48.4423 20.3226 48.0403 19.9393C47.041 18.9849 46.0044 18.5923 45.0073 18.6054C44.0234 18.6184 43.0065 19.0333 42.0248 19.9207C41.6097 20.2947 41.6339 20.8845 42.0753 21.2343C42.5168 21.5859 43.213 21.5673 43.6281 21.1933ZM15.0768 21.1933C15.56 20.7561 16.0058 20.4715 16.4868 20.4659C16.9546 20.4603 17.3807 20.7282 17.8463 21.1729C18.2482 21.558 18.9422 21.5933 19.3968 21.2529C19.8493 20.9124 19.891 20.3226 19.4891 19.9393C18.4898 18.9849 17.4531 18.5923 16.456 18.6054C15.4721 18.6184 14.4553 19.0333 13.4735 19.9207C13.0584 20.2947 13.0826 20.8845 13.5241 21.2343C13.9655 21.5859 14.6617 21.5673 15.0768 21.1933ZM28.2543 18.3114C28.7375 17.8742 29.1833 17.5914 29.6643 17.5839C30.1321 17.5784 30.5582 17.8481 31.0238 18.2928C31.4257 18.6761 32.1197 18.7114 32.5743 18.3709C33.0268 18.0305 33.0685 17.4425 32.6666 17.0574C31.6673 16.1048 30.6307 15.7123 29.6336 15.7253C28.6496 15.7364 27.6328 16.1513 26.651 17.0388C26.236 17.4128 26.2601 18.0026 26.7016 18.3542C27.143 18.7058 27.8392 18.6854 28.2543 18.3114ZM51.2161 8.33904L51.2908 8.09903C51.3589 7.94275 51.4599 7.78833 51.5763 7.63948C52.1034 6.95668 53.0214 6.37247 53.8472 6.18456C54.8861 5.95014 56.4476 6.03758 57.9498 6.19945C58.9052 6.30177 59.8386 6.44317 60.6161 6.57527C60.0209 7.01807 59.2939 7.5353 58.5274 8.03019C57.3239 8.80603 56.0237 9.54279 54.9849 9.77908C54.1591 9.96699 53.0192 9.84978 52.1583 9.48139C51.7257 9.2972 51.3457 9.0572 51.2337 8.7037C51.1964 8.58463 51.192 8.46183 51.2161 8.33904ZM49.1692 7.61716L49.0945 7.85716C49.0418 7.97252 48.9672 8.07857 48.8617 8.16601C48.5565 8.42462 48.0865 8.47114 47.6033 8.44695C46.6413 8.4023 45.5849 8.02089 44.981 7.50925C44.2189 6.86365 43.5292 5.67478 42.945 4.49335C42.5717 3.73985 42.2488 2.98448 41.9941 2.34818C42.7452 2.564 43.6369 2.8375 44.5263 3.15192C45.921 3.64682 47.3266 4.23288 48.0865 4.87662C48.6904 5.39012 49.1407 6.28503 49.1956 7.09807C49.2065 7.27668 49.2022 7.45343 49.1692 7.61716Z" fill="white"/>
</svg>
