<svg width="133" height="34" viewBox="0 0 133 34" fill="none" xmlns="http://www.w3.org/2000/svg">
<path fill-rule="evenodd" clip-rule="evenodd" d="M115.099 7.64319H121.871V7.64348H123.778C124.665 7.64348 125.121 7.02811 125.147 5.79954V2.39452H123.739V5.9658C123.739 6.22274 123.642 6.35013 123.445 6.35013H122.062V6.34984H121.358V6.10586C121.358 4.98093 121.052 4.046 120.436 3.30325C119.771 2.54322 118.921 2.1632 117.889 2.1632C116.787 2.1632 115.896 2.59936 115.213 3.4695L116.008 4.45409C116.163 4.24897 116.317 4.09135 116.47 3.98123C116.915 3.64871 117.392 3.48246 117.904 3.48246C118.551 3.48246 119.072 3.70701 119.465 4.16044C119.814 4.5858 119.989 5.12127 119.989 5.76039V6.34984L115.295 6.34979H114.398V5.0694C114.398 4.14744 114.133 3.41548 113.604 2.87352C113.075 2.33157 112.384 2.06167 111.633 2.06167C110.881 2.06167 110.195 2.32941 109.571 2.86705L110.21 3.98118C110.687 3.5623 111.166 3.35286 111.592 3.35286C112.017 3.35286 112.354 3.49321 112.602 3.77606C112.85 4.05891 112.978 4.48427 112.986 5.05645V6.34979H109.722V7.64314H109.726L115.099 7.64319ZM122.139 1.39051C121.977 1.23289 121.895 1.04288 121.895 0.820486C121.895 0.598091 121.977 0.395129 122.139 0.237509C122.301 0.0798895 122.493 0 122.715 0C122.938 0 123.128 0.0798895 123.285 0.237509C123.443 0.395129 123.523 0.589455 123.523 0.820486C123.523 1.05152 123.443 1.23289 123.285 1.39051C123.128 1.54813 122.938 1.62802 122.715 1.62802C122.493 1.62802 122.301 1.54813 122.139 1.39051ZM124.009 1.39051C123.847 1.23289 123.765 1.04288 123.765 0.820486C123.765 0.598091 123.847 0.395129 124.009 0.237509C124.171 0.0798895 124.363 0 124.585 0C124.808 0 124.998 0.0798895 125.155 0.237509C125.313 0.395129 125.393 0.589455 125.393 0.820486C125.393 1.05152 125.313 1.23289 125.155 1.39051C124.998 1.54813 124.808 1.62802 124.585 1.62802C124.363 1.62802 124.171 1.54813 124.009 1.39051ZM100.202 7.64314V6.34979H103.466V5.05645C103.458 4.48427 103.33 4.05891 103.082 3.77606C102.834 3.49321 102.497 3.35286 102.072 3.35286C101.646 3.35286 101.167 3.5623 100.69 3.98118L100.051 2.86705C100.675 2.32941 101.361 2.06167 102.113 2.06167C102.864 2.06167 103.555 2.33157 104.084 2.87352C104.613 3.41548 104.879 4.14744 104.879 5.0694V6.34979L105.578 6.34977H107.152C107.349 6.34977 107.446 6.22237 107.446 5.96543V2.39416H108.854V5.79918C108.828 7.02775 108.372 7.64311 107.485 7.64311L105.775 7.64314H100.206H100.202ZM86.0944 25.2945V12.4798L86.09 12.4777H81.7371V14.4965L82.5879 14.5462C82.8146 14.5634 82.9743 14.6196 83.0629 14.7167C83.1514 14.8139 83.1967 14.9931 83.1967 15.2522V25.4176C83.1967 26.1971 83.0801 26.7477 82.8448 27.0715C82.6094 27.3954 82.2294 27.5574 81.7026 27.5574C81.1758 27.5574 80.5971 27.3868 79.9645 27.0456L79.09 29.0645C79.999 29.6323 81.0354 29.9152 82.2035 29.9152C83.8402 29.9152 84.9262 29.4272 85.4617 28.4556C85.8828 27.6459 86.0944 26.5922 86.0944 25.2945ZM82.5188 9.10073C82.5188 9.61893 82.6893 10.0443 83.0305 10.3768C83.3695 10.7093 83.8164 10.8756 84.367 10.8756C84.9176 10.8756 85.3667 10.7093 85.7165 10.3768C86.0641 10.0443 86.239 9.62109 86.239 9.10073C86.239 8.58037 86.0641 8.14853 85.7165 7.79875C85.3667 7.45112 84.9176 7.27623 84.367 7.27623C83.8164 7.27623 83.3716 7.45112 83.0305 7.79875C82.6893 8.14853 82.5188 8.58253 82.5188 9.10073ZM64.364 21.9866V10.9467H62.4683C62.0947 10.9467 61.9091 11.1972 61.9091 11.7003V12.8425L59.4282 12.6719V8.5371H72.1457V12.6719L69.6648 12.8425V11.7003C69.6648 11.4239 69.6238 11.2296 69.5439 11.1173C69.4619 11.005 69.2675 10.9467 68.9609 10.9467H67.307V22.5696L69.2287 22.643V24.7093H62.3711V22.7402L63.6601 22.6667C64.1309 22.6171 64.3662 22.3904 64.3662 21.9866H64.364ZM77.2599 12.1147C78.4755 12.1147 79.4407 12.4105 80.1532 13.0021C80.8657 13.5938 81.2241 14.425 81.2241 15.4938C81.2241 16.2064 81.0708 16.8347 80.7621 17.3788C80.4533 17.9229 80.0733 18.3483 79.6199 18.6549C79.1664 18.9636 78.6137 19.2141 77.9659 19.4084C76.8799 19.7323 75.6556 19.8942 74.2932 19.8942C74.3428 20.7536 74.6084 21.4467 75.0964 21.9735C75.5822 22.5004 76.3293 22.7638 77.3333 22.7638C78.3373 22.7638 79.3435 22.4075 80.3475 21.6928L81.2716 23.662C80.9478 23.9535 80.3993 24.2536 79.6307 24.5624C78.8598 24.8711 77.9811 25.0244 76.9922 25.0244C75.0144 25.0244 73.5634 24.4782 72.6393 23.3835C71.7151 22.2888 71.2531 20.786 71.2531 18.8729C71.2531 16.9599 71.7799 15.3556 72.8336 14.058C73.8873 12.7603 75.362 12.1126 77.2599 12.1126V12.1147ZM76.1544 17.6703C76.746 17.5645 77.2923 17.3291 77.7954 16.9642C78.2985 16.5993 78.5489 16.1653 78.5489 15.6622C78.5489 14.6733 78.0631 14.1789 77.0893 14.1789C76.1803 14.1789 75.485 14.5395 74.9971 15.2606C74.5113 15.9818 74.2435 16.8455 74.1939 17.8495C74.9064 17.8344 75.5585 17.7718 76.1522 17.6681L76.1544 17.6703ZM93.3945 12.1151C94.0919 12.1151 94.7569 12.2122 95.3896 12.4065V9.94941C95.3896 9.59314 95.178 9.39882 94.7569 9.36643L93.7119 9.29302V7.37135H98.2354V22.1574C98.2505 22.5309 98.4534 22.7166 98.8442 22.7166L99.695 22.7663V24.7117H95.7545V23.2758L95.6811 23.2521C94.9513 24.4353 93.8479 25.0269 92.3732 25.0269C90.5249 25.0269 89.2273 24.4116 88.4824 23.1787C87.8022 22.0602 87.4611 20.6913 87.4611 19.0698C87.4611 16.9624 87.9836 15.2761 89.0286 14.0108C90.0737 12.7455 91.529 12.1151 93.3945 12.1151ZM95.3896 20.918V14.6197C94.8066 14.3606 94.1891 14.2311 93.5413 14.2311C92.4704 14.2311 91.6887 14.6607 91.1943 15.5201C90.6998 16.3794 90.4515 17.4741 90.4515 18.802C90.4515 21.5247 91.326 22.8872 93.0771 22.8872C93.7421 22.8872 94.2927 22.6972 94.731 22.315C95.1693 21.935 95.3874 21.4686 95.3874 20.9159L95.3896 20.918ZM108.735 13.0021C108.022 12.4105 107.057 12.1147 105.842 12.1147V12.1126C103.944 12.1126 102.469 12.7603 101.415 14.058C100.362 15.3556 99.8348 16.9599 99.8348 18.8729C99.8348 20.786 100.297 22.2888 101.221 23.3835C102.145 24.4782 103.596 25.0244 105.574 25.0244C106.563 25.0244 107.442 24.8711 108.212 24.5624C108.981 24.2536 109.529 23.9535 109.853 23.662L108.929 21.6928C107.925 22.4075 106.919 22.7638 105.915 22.7638C104.911 22.7638 104.164 22.5004 103.678 21.9735C103.19 21.4467 102.925 20.7536 102.875 19.8942C104.237 19.8942 105.462 19.7323 106.548 19.4084C107.195 19.2141 107.748 18.9636 108.202 18.6549C108.655 18.3483 109.035 17.9229 109.344 17.3788C109.653 16.8347 109.806 16.2064 109.806 15.4938C109.806 14.425 109.447 13.5938 108.735 13.0021ZM107.131 15.6622C107.131 16.1653 106.88 16.5993 106.377 16.9642C105.874 17.3291 105.328 17.5645 104.736 17.6703L104.734 17.6681C104.14 17.7718 103.488 17.8344 102.776 17.8495C102.825 16.8455 103.093 15.9818 103.579 15.2606C104.067 14.5395 104.762 14.1789 105.671 14.1789C106.645 14.1789 107.131 14.6733 107.131 15.6622ZM116.291 12.1147C117.506 12.1147 118.472 12.4105 119.184 13.0021C119.897 13.5938 120.255 14.425 120.255 15.4938C120.255 16.2064 120.102 16.8347 119.793 17.3788C119.484 17.9229 119.104 18.3483 118.651 18.6549C118.197 18.9636 117.645 19.2141 116.997 19.4084C115.911 19.7323 114.687 19.8942 113.324 19.8942C113.374 20.7536 113.639 21.4467 114.127 21.9735C114.613 22.5004 115.36 22.7638 116.364 22.7638C117.368 22.7638 118.374 22.4075 119.378 21.6928L120.303 23.662C119.979 23.9535 119.43 24.2536 118.662 24.5624C117.891 24.8711 117.012 25.0244 116.023 25.0244C114.045 25.0244 112.594 24.4782 111.67 23.3835C110.746 22.2888 110.284 20.786 110.284 18.8729C110.284 16.9599 110.811 15.3556 111.865 14.058C112.918 12.7603 114.393 12.1126 116.291 12.1126V12.1147ZM115.185 17.6703C115.777 17.5645 116.323 17.3291 116.826 16.9642C117.329 16.5993 117.58 16.1653 117.58 15.6622C117.58 14.6733 117.094 14.1789 116.12 14.1789C115.211 14.1789 114.516 14.5395 114.028 15.2606C113.542 15.9818 113.274 16.8455 113.225 17.8495C113.937 17.8344 114.589 17.7718 115.183 17.6681L115.185 17.6703ZM128.695 12.4065C128.062 12.2122 127.397 12.1151 126.7 12.1151C124.834 12.1151 123.379 12.7455 122.334 14.0108C121.289 15.2761 120.766 16.9624 120.766 19.0698C120.766 20.6913 121.107 22.0602 121.787 23.1787C122.532 24.4116 123.83 25.0269 125.678 25.0269C127.153 25.0269 128.256 24.4353 128.986 23.2521L129.06 23.2758V24.7117H133V22.7663L132.149 22.7166C131.759 22.7166 131.556 22.5309 131.54 22.1574V7.37135H127.017V9.29302L128.062 9.36643C128.483 9.39882 128.695 9.59314 128.695 9.94941V12.4065ZM128.695 14.6197V20.918L128.693 20.9159C128.693 21.4686 128.474 21.935 128.036 22.315C127.598 22.6972 127.047 22.8872 126.382 22.8872C124.631 22.8872 123.757 21.5247 123.757 18.802C123.757 17.4741 124.005 16.3794 124.499 15.5201C124.994 14.6607 125.775 14.2311 126.846 14.2311C127.494 14.2311 128.112 14.3606 128.695 14.6197ZM105.283 9.38341C105.283 9.6058 105.365 9.79581 105.527 9.95343C105.689 10.111 105.881 10.1909 106.103 10.1909C106.325 10.1909 106.515 10.111 106.673 9.95343C106.831 9.79581 106.911 9.61444 106.911 9.38341C106.911 9.15237 106.831 8.95805 106.673 8.80043C106.515 8.64281 106.325 8.56292 106.103 8.56292C105.881 8.56292 105.689 8.64281 105.527 8.80043C105.365 8.95805 105.283 9.16101 105.283 9.38341ZM107.152 9.38341C107.152 9.6058 107.234 9.79581 107.396 9.95343C107.558 10.111 107.751 10.1909 107.973 10.1909C108.195 10.1909 108.385 10.111 108.543 9.95343C108.701 9.79581 108.78 9.61444 108.78 9.38341C108.78 9.15237 108.701 8.95805 108.543 8.80043C108.385 8.64281 108.195 8.56292 107.973 8.56292C107.751 8.56292 107.558 8.64281 107.396 8.80043C107.234 8.95805 107.152 9.16101 107.152 9.38341ZM118.299 9.52383C118.299 9.74622 118.381 9.93623 118.543 10.0939C118.705 10.2515 118.897 10.3314 119.119 10.3314C119.342 10.3314 119.532 10.2515 119.689 10.0939C119.847 9.93623 119.927 9.75486 119.927 9.52383C119.927 9.2928 119.847 9.09847 119.689 8.94085C119.532 8.78323 119.342 8.70334 119.119 8.70334C118.897 8.70334 118.705 8.78323 118.543 8.94085C118.381 9.09847 118.299 9.30143 118.299 9.52383ZM44.1787 0.24376H47.1627V5.06304H44.1787V0.24376ZM47.1605 15.0839H44.1787V19.9032H47.1605V15.0839ZM48.3533 0.24376H51.3373V5.06304H48.3533V0.24376ZM30.2112 0.24376L13.3394 0.306377C9.84152 0.302058 7.0022 3.40263 6.99788 7.23085C6.99788 8.91932 7.55927 10.5517 8.5784 11.8191L8.5201 11.9206L8.59567 11.8385L9.15706 12.4496L16.9884 21.0258H0V25.8473H24.2994V8.32771H19.8925V17.3876L12.1043 8.85887C12.0784 8.83296 12.0611 8.81568 12.046 8.79625C11.9942 8.75739 11.9489 8.70988 11.9143 8.65159C11.8992 8.63647 11.8841 8.62136 11.8711 8.60408L11.8496 8.58033C11.5624 8.20248 11.4069 7.72746 11.4069 7.23733C11.4069 6.07137 12.2684 5.1235 13.3351 5.12134L30.2112 5.05872V0.24376ZM45.6064 8.31034H51.3325V13.1296H34.8796L42.7109 21.7059L43.2723 22.3147L43.3457 22.2327L43.2874 22.3385C44.7297 24.1263 45.2285 26.6007 44.611 28.8873C43.8164 31.8367 41.3377 33.8599 38.5264 33.8491H10.4053V29.0341H38.5329C39.5974 29.0319 40.461 28.0862 40.461 26.9203C40.4632 26.4301 40.3077 25.953 40.0206 25.5773L39.999 25.5513C39.986 25.5362 39.9709 25.5211 39.9558 25.506C39.9191 25.4499 39.8759 25.4002 39.8241 25.3613C39.8047 25.3398 39.7852 25.3204 39.7658 25.3009L39.7658 25.3009L31.9755 16.7721V25.832H27.5686V8.31034H39.0187L34.3678 3.75449L37.2978 0.172416L45.6064 8.31034Z" fill="white"/>
</svg>
