<?xml version="1.0" encoding="UTF-8"?><svg id="Layer_2" xmlns="http://www.w3.org/2000/svg" viewBox="0 0 3330.65 843.87"><defs><style>.cls-1{stroke-width:0px;}.cls-1,.cls-2{fill:#fff;}.cls-2{font-family:BreeSerif-Regular, 'Bree Serif';font-size:606.21px;}</style></defs><g id="Layer_1-2"><text class="cls-2" transform="translate(1472.39 616.01)"><tspan x="0" y="0">Tejdeed</tspan></text><path class="cls-1" d="M2497.86,190.52v-32.23h81.38v-32.23c-.22-14.26-3.4-24.89-9.58-31.91-6.17-7.03-14.57-10.54-25.21-10.54s-22.55,5.22-34.47,15.64l-15.96-27.77c15.53-13.4,32.65-20.1,51.38-20.1s35.95,6.75,49.14,20.26c13.19,13.51,19.79,31.75,19.79,54.73v31.91h22.34v32.23h-138.82Z"/><path class="cls-1" d="M2630.63,248.12c-4.04-3.94-6.06-8.67-6.06-14.2s2.02-10.59,6.06-14.52c4.05-3.93,8.83-5.9,14.36-5.9s10.26,1.97,14.2,5.9c3.94,3.94,5.91,8.78,5.91,14.52s-1.97,10.26-5.91,14.2c-3.94,3.94-8.67,5.9-14.2,5.9s-10.31-1.97-14.36-5.9ZM2631.91,158.28h39.25c4.89,0,7.34-3.19,7.34-9.57V59.67h35.1v84.89c-.64,30.63-12.02,45.95-34.15,45.95h-47.55v-32.23ZM2677.23,248.12c-4.04-3.94-6.06-8.67-6.06-14.2s2.02-10.59,6.06-14.52c4.04-3.93,8.83-5.9,14.36-5.9s10.26,1.97,14.2,5.9c3.94,3.94,5.9,8.78,5.9,14.52s-1.97,10.26-5.9,14.2c-3.94,3.94-8.67,5.9-14.2,5.9s-10.32-1.97-14.36-5.9Z"/><path class="cls-1" d="M2735.21,190.52v-32.23h81.38v-32.23c-.22-14.26-3.4-24.89-9.58-31.91-6.17-7.03-14.57-10.54-25.21-10.54s-22.55,5.22-34.47,15.64l-15.96-27.77c15.53-13.4,32.65-20.1,51.38-20.1s35.95,6.75,49.14,20.26c13.19,13.51,19.79,31.75,19.79,54.73v31.91h22.34v32.23h-138.82Z"/><path class="cls-1" d="M2869.27,190.52v-32.23h121.91v-14.68c0-15.96-4.36-29.25-13.09-39.89-9.78-11.28-22.76-16.91-38.93-16.91-12.76,0-24.68,4.15-35.74,12.45-3.83,2.76-7.66,6.7-11.49,11.8l-19.78-24.57c17.02-21.7,39.25-32.55,66.7-32.55,25.74,0,46.91,9.47,63.5,28.4,15.32,18.51,22.98,41.81,22.98,69.89v6.06h17.56v32.23h-173.61ZM2955.11,251.63c-4.04-3.94-6.06-8.67-6.06-14.2s2.02-10.59,6.06-14.52c4.04-3.94,8.83-5.91,14.36-5.91s10.26,1.97,14.2,5.91c3.94,3.93,5.91,8.78,5.91,14.52s-1.97,10.26-5.91,14.2c-3.94,3.94-8.67,5.91-14.2,5.91s-10.32-1.97-14.36-5.91Z"/><path class="cls-1" d="M3038.1,158.28h39.25c4.89,0,7.34-3.19,7.34-9.57V59.67h35.1v84.89c-.64,30.63-12.02,45.95-34.15,45.95h-47.55v-32.23ZM3044.8,34.63c-4.04-3.94-6.06-8.67-6.06-14.2s2.02-10.59,6.06-14.52c4.05-3.94,8.83-5.9,14.36-5.9s10.26,1.97,14.2,5.9c3.94,3.94,5.91,8.78,5.91,14.52s-1.97,10.26-5.91,14.2c-3.94,3.93-8.67,5.9-14.2,5.9s-10.31-1.97-14.36-5.9ZM3091.4,34.63c-4.04-3.94-6.06-8.67-6.06-14.2s2.02-10.59,6.06-14.52c4.04-3.94,8.83-5.9,14.36-5.9s10.26,1.97,14.2,5.9c3.94,3.94,5.9,8.78,5.9,14.52s-1.97,10.26-5.9,14.2c-3.94,3.93-8.67,5.9-14.2,5.9s-10.32-1.97-14.36-5.9Z"/><rect class="cls-1" x="1101.27" y="6.08" width="74.36" height="120.15"/><rect class="cls-1" x="1101.27" y="376.02" width="74.36" height="120.15"/><rect class="cls-1" x="1205.35" y="6.08" width="74.36" height="120.15"/><rect class="cls-1" x="2.69" y="723.71" width="74.36" height="120.16"/><rect class="cls-1" x="106.77" y="723.71" width="74.36" height="120.16"/><path class="cls-1" d="M753.22,6.08l-420.7,1.57c-87.22-.1-158,77.18-158.09,172.62-.04,42.11,13.98,82.78,39.41,114.38l-1.45,2.56,1.88-2.02,13.98,15.22,195.23,213.78H0v120.2h605.76V207.59h-109.85v225.83l-194.17-212.6c-.63-.65-1.08-1.1-1.43-1.54-1.29-.96-2.4-2.18-3.28-3.59-.38-.37-.73-.76-1.06-1.17l-.52-.61c-7.16-9.39-11.05-21.25-11.01-33.48-.01-29.08,21.49-52.68,48.07-52.76l420.71-1.56V6.08Z"/><path class="cls-1" d="M1279.71,207.16h-142.76L929.85,4.32l-73.06,89.29,115.94,113.55h-285.44v436.8h109.84v-225.85l194.18,212.62c.5.47.98.98,1.43,1.51,1.27.99,2.38,2.2,3.28,3.59.38.36.73.74,1.06,1.16l.53.65c7.16,9.38,11.05,21.24,10.98,33.46,0,29.07-21.51,52.65-48.08,52.72H259.46v120.05h701.04c70.08.26,131.89-50.16,151.67-123.71,15.39-57,2.94-118.66-32.97-163.26l1.43-2.62-1.86,2.03-14-15.19-195.23-213.79h410.16v-120.17Z"/></g></svg>