<svg width="40" height="47" viewBox="0 0 40 47" fill="none" xmlns="http://www.w3.org/2000/svg">
<path fill-rule="evenodd" clip-rule="evenodd" d="M17.6498 3.71574C16.5132 3.5489 15.3766 3.65695 14.2589 3.95726C12.6488 4.39105 10.8114 5.51443 9.86424 7.21302C9.4096 6.8857 8.97377 6.65371 8.53808 6.48687C7.89402 6.23105 7.26899 6.12777 6.73858 6.10394C6.68175 5.58117 6.70082 4.81212 7.09862 4.00175C7.28805 3.59657 7.06068 3.1326 6.56816 2.96576C6.09458 2.79892 5.54519 2.99118 5.33681 3.39795C4.78746 4.53246 4.76852 5.60977 4.86323 6.3391C3.36673 6.70297 0.84732 7.72943 0.146426 10.5546C-0.175607 11.8798 0.0705608 13.1398 0.525195 14.3554C0.809341 15.1228 1.18824 15.8728 1.51027 16.6101C1.49133 16.6292 1.45337 16.6514 1.43443 16.6736C1.26394 16.8325 1.16944 17.0455 1.18839 17.2647L3.04477 45.3288C3.08266 45.7499 3.49941 46.0788 3.99193 46.0788H31.1942C31.7056 46.0788 32.1224 45.7499 32.1413 45.3288L34.0167 17.2647C34.0167 17.0455 33.9409 16.8325 33.7514 16.6736C33.5809 16.5147 33.3347 16.4258 33.0695 16.4258H32.4255C32.9559 15.1212 33.221 13.8215 33.0506 12.6997L35.0397 11.0233C36.1952 11.4349 37.578 11.249 38.5251 10.4608C39.7564 9.42643 39.7564 7.7485 38.5251 6.71409C38.1273 6.38677 37.6727 6.16273 37.1613 6.04356C37.0287 5.62725 36.7634 5.23478 36.3656 4.90745C35.1343 3.87305 33.1264 3.87305 31.8951 4.90745C30.9668 5.69557 30.7396 6.8571 31.2321 7.82318C31.2321 7.82318 29.9817 8.87824 29.224 9.49952C28.0685 9.36923 26.7234 9.517 25.3595 9.85227C25.3595 9.84274 25.3598 9.83479 25.3408 9.82685C25.0946 8.22042 25.8143 7.18919 27.1403 6.75064C27.4245 6.66007 27.6329 6.46304 27.7087 6.21993C27.7845 5.97682 27.7275 5.71782 27.538 5.52079C26.5151 4.43554 25.1512 3.17232 22.7454 2.99277C21.6278 2.91014 20.5291 3.05633 19.5252 3.43926C19.6009 2.78779 19.923 1.99173 20.9649 1.4785C21.4195 1.25446 21.5711 0.766648 21.3059 0.390066C21.0407 0.0118958 20.4534 -0.112043 19.9987 0.11041C18.0855 1.06696 17.6688 2.62572 17.6498 3.71574ZM32.0655 18.0147H11.929C11.929 18.0147 3.15827 18.0338 3.12039 18.0417L4.8822 44.4898H30.3039L32.0655 18.0147ZM9.52316 23.1645L10.3757 39.5355C10.3947 39.974 10.8304 40.3141 11.3608 40.295C11.8912 40.2759 12.289 39.9057 12.27 39.4672L11.4175 23.0946C11.3985 22.6576 10.9628 22.3176 10.4324 22.3367C9.92093 22.3541 9.50422 22.726 9.52316 23.1645ZM23.7684 23.0946L22.916 39.4672C22.8971 39.9057 23.3138 40.2759 23.8253 40.295C24.3557 40.3141 24.7914 39.974 24.8104 39.5355L25.6627 23.1645C25.6816 22.726 25.2839 22.3541 24.7535 22.3367C24.242 22.3176 23.7873 22.6576 23.7684 23.0946ZM16.5889 23.1296V39.5021C16.5889 39.9407 17.0056 40.2966 17.536 40.2966C18.0475 40.2966 18.4832 39.9407 18.4832 39.5021V23.1296C18.4832 22.691 18.0475 22.3351 17.536 22.3351C17.0056 22.3351 16.5889 22.691 16.5889 23.1296ZM8.12139 16.4258C6.09448 15.0275 5.4315 13.2908 5.07158 12.3501C4.37069 10.5514 4.42755 9.09275 4.63593 8.08695C3.63194 8.47147 2.40062 9.26277 2.00281 10.874C1.73761 11.9227 1.96501 12.9174 2.32493 13.8803C2.64696 14.7494 3.0826 15.5947 3.46147 16.4258H8.12139ZM6.71962 7.69606C6.45442 8.34595 6.0757 9.82526 6.87131 11.8591C7.28806 12.9507 8.19733 15.3786 12.0807 16.4258H16.7785C16.8922 15.9777 17.0437 15.5328 17.271 15.0974C15.3199 14.9131 13.9939 14.4809 12.9899 13.8262C11.7775 13.0477 11.0007 11.937 10.243 10.4402C9.50423 8.99583 8.59506 8.26014 7.74262 7.92646C7.3827 7.78346 7.02271 7.71831 6.71962 7.69606ZM30.3985 16.4258C30.9478 15.296 31.2889 14.1552 31.1942 13.1557L28.6936 11.0488C26.0415 10.8835 22.3666 12.331 20.4913 13.9089C19.601 14.6461 19.0136 15.5232 18.7295 16.4258H30.3985ZM23.5411 10.4005C23.5221 10.2845 23.4842 10.1653 23.4652 10.0414C23.1432 8.00909 23.9201 6.60604 25.3219 5.77502C24.6778 5.19347 23.8252 4.66911 22.575 4.57536C21.4005 4.48797 20.245 4.76445 19.2979 5.42387C19.0327 5.61613 18.6348 5.66062 18.3128 5.53668C17.1762 5.10925 15.9829 5.16169 14.8463 5.46994C13.4255 5.85288 11.7585 6.94926 11.266 8.63514C11.5123 8.97994 11.7585 9.36923 11.9859 9.81255C12.592 11.017 13.1604 11.9402 14.1454 12.5678C15.0736 13.17 16.3617 13.4814 18.3317 13.5784C18.578 13.3035 18.8433 13.0365 19.1464 12.7839C20.2261 11.875 21.8173 11.017 23.5411 10.4005ZM31.8571 11.4555L30.7206 10.5022L33.0885 8.5112C33.4295 8.2236 33.4674 7.76439 33.1454 7.44819C32.7476 7.03188 32.7853 6.41855 33.2399 6.03084C33.7325 5.61772 34.5282 5.61772 35.0207 6.03084C35.267 6.23105 35.3995 6.49164 35.3995 6.75382C35.4184 7.17648 35.8162 7.5181 36.3277 7.52764C36.6308 7.53558 36.934 7.63886 37.1802 7.83748C37.6728 8.2522 37.6728 8.92274 37.1802 9.33745C36.7256 9.72516 35.9868 9.74899 35.4943 9.41054C35.1154 9.15313 34.566 9.17697 34.225 9.46457L31.8571 11.4555Z" fill="white"/>
</svg>
