<svg width="32" height="33" viewBox="0 0 32 33" fill="none" xmlns="http://www.w3.org/2000/svg">
<path d="M5 1.09909H27C29.6234 1.09909 31.75 3.22574 31.75 5.84909V27.8491C31.75 30.4724 29.6234 32.5991 27 32.5991H5C2.37665 32.5991 0.25 30.4724 0.25 27.8491V5.84909C0.25 3.22574 2.37665 1.09909 5 1.09909Z" stroke="white" stroke-opacity="0.2" stroke-width="0.5"/>
<path d="M17.5222 15.1983L23.4785 7.99997H22.0671L16.8952 14.2502L12.7644 7.99997H8L14.2466 17.4514L8 25H9.41155L14.8732 18.3995L19.2356 25H24L17.5218 15.1983H17.5222ZM15.5889 17.5347L14.956 16.5935L9.92015 9.1047H12.0882L16.1522 15.1484L16.7851 16.0896L22.0677 23.9455H19.8997L15.5889 17.535V17.5347Z" fill="white"/>
</svg>
