<svg width="32" height="33" viewBox="0 0 32 33" fill="none" xmlns="http://www.w3.org/2000/svg">
<path d="M5 1.09912H27C29.6234 1.09912 31.75 3.22577 31.75 5.84912V27.8491C31.75 30.4725 29.6234 32.5991 27 32.5991H5C2.37665 32.5991 0.25 30.4725 0.25 27.8491V5.84912C0.25 3.22577 2.37665 1.09912 5 1.09912Z" stroke="white" stroke-opacity="0.2" stroke-width="0.5"/>
<path d="M24 11.8491C23.4 12.1491 22.8 12.2491 22.1 12.3491C22.8 11.9491 23.3 11.3491 23.5 10.5491C22.9 10.9491 22.2 11.1491 21.4 11.3491C20.8 10.7491 19.9 10.3491 19 10.3491C16.9 10.3491 15.3 12.3491 15.8 14.3491C13.1 14.2491 10.7 12.9491 9 10.9491C8.1 12.4491 8.6 14.3491 10 15.3491C9.5 15.3491 9 15.1491 8.5 14.9491C8.5 16.4491 9.6 17.8491 11.1 18.2491C10.6 18.3491 10.1 18.4491 9.6 18.3491C10 19.6491 11.2 20.6491 12.7 20.6491C11.5 21.5491 9.7 22.0491 8 21.8491C9.5 22.7491 11.2 23.3491 13 23.3491C19.1 23.3491 22.5 18.2491 22.3 13.5491C23 13.1491 23.6 12.5491 24 11.8491Z" fill="white"/>
</svg>
