<?xml version="1.0" encoding="UTF-8"?><svg id="Layer_2" xmlns="http://www.w3.org/2000/svg" viewBox="0 0 76.34 93.57"><defs><style>.cls-1{fill:#fff;opacity:.8;stroke:#009e4c;stroke-miterlimit:10;}</style></defs><g id="Layer_1-2"><path class="cls-1" d="M75.81,82.15l-1.24-16.22c-.55-7.12-5.55-12.88-12.26-14.55l5.63-9.76c.36-.62.3-1.4-.15-1.95-.45-.56-1.2-.77-1.88-.55l-5.68,1.86-.49-.35.61-11.57c.03-.47-.15-.94-.47-1.28-.33-.34-.78-.54-1.25-.54h-3.35c-.57-3.65-2.91-6.89-6.3-8.52-.59-.28-1.2-.49-1.83-.67.96-1.25,2.06-2.4,3.27-3.46,1.13,1.09,2.56,1.82,4.14,2.07.42.07.85.1,1.27.1,1.62,0,3.19-.5,4.53-1.47l1.84-1.32c.37-.27.62-.67.7-1.12.07-.45-.04-.91-.3-1.29-1.05-1.46-2.59-2.52-4.33-2.98-.78-.2-1.34-.99-1.29-1.79.12-1.8-.39-3.59-1.45-5.06-.56-.78-1.64-.95-2.41-.39l-1.84,1.32c-2.9,2.09-3.93,5.81-2.75,9.01-1.46,1.23-2.78,2.57-3.94,4.04-1.14-1.1-2.52-1.92-4.07-2.37-.88-.26-1.79-.38-2.71-.38-.33,0-.65.02-1.02.05-3.25.35-6.04,2.28-7.55,5.07-.16-.5-.43-.96-.77-1.35.06-.48.01-.97-.14-1.44l-.55-1.65c-.25-.8-.77-1.47-1.47-1.88l-6.4-3.86c.32-.73.4-1.58.13-2.4l-.89-2.7c-.58-1.76-2.49-2.72-4.24-2.14L5.76,3.68c-.85.28-1.54.88-1.95,1.68-.4.8-.47,1.71-.19,2.57l.89,2.7c.27.82.83,1.46,1.53,1.86l-2.85,6.89c-.31.74-.34,1.58-.08,2.36l.56,1.7c.15.46.41.88.73,1.22-.04.53.02,1.06.19,1.56l.34,1.03h-2.7c-.47,0-.93.19-1.25.54-.33.34-.5.81-.47,1.28l2.97,55.87c.25,4.56,4.02,8.14,8.58,8.14h36.75c.66,0,1.32-.09,1.97-.25h15.16c2.75,0,5.4-1.16,7.27-3.18,1.87-2.02,2.82-4.75,2.61-7.49ZM60.47,44.53l2.22-.73-4.08,7.07c-.1,0-.2,0-.3,0h-1.49c-.1,0-.19,0-.29,0l-5.23-9.05,3.03-.84,4.58,3.3c.45.32,1.02.41,1.55.24ZM53.29,5.47l.15-.1c.08.39.11.79.09,1.2h0c-.16,2.44,1.5,4.74,3.86,5.36.4.1.77.26,1.11.46l-.15.1c-.94.67-2.08.94-3.22.76-1.14-.19-2.14-.81-2.82-1.74-1.39-1.94-.95-4.65.99-6.04ZM31.77,20.87c.74-2.42,2.85-4.15,5.32-4.42.81-.06,1.67-.02,2.47.21,1.41.41,2.63,1.31,3.46,2.53.08.22.2.42.36.6.06.1.12.21.17.32.25.54.77.92,1.37.99.91.11,1.78.35,2.58.74,2.19,1.06,3.76,3.08,4.29,5.41H12.33c.3-.73.8-1.37,1.46-1.85.66-.49,1.44-.76,2.28-.8.86-.04,1.56-.7,1.65-1.55.01-.13.04-.26.07-.38.27-1.25,1.17-2.31,2.37-2.76.43-.16.88-.24,1.33-.24,1.58,0,3,.99,3.55,2.48.18.48.57.86,1.06,1.03.49.17,1.03.11,1.47-.16.4-.25.84-.45,1.28-.61.44-.15.94-.26,1.46-.31.69-.08,1.26-.55,1.46-1.21ZM15.89,3.98l.83,2.52-.19.06s0,0-.01,0l-2.52.83-6.23,2.05-.83-2.52,8.96-2.95ZM7.87,25.12s-.07-.2.04-.41c.24-.46.26-1,.06-1.47-.2-.46-.58-.81-1.05-.96l-.54-1.57,3.43-8.28,4.59-1.52,2.45-.81,7.63,4.6.54,1.61c-.14.2-.24.43-.29.67-.99-.49-2.09-.77-3.23-.77-.87,0-1.73.16-2.55.47-2.12.8-3.72,2.51-4.38,4.66-1.02.23-1.98.66-2.81,1.28-1.56,1.12-2.62,2.79-3.01,4.64h-.18l-.7-2.12ZM6.92,84.75l-2.87-54.05h52.76l-.4,7.53-.73-.53c-.42-.3-.96-.4-1.47-.26l-5.98,1.66c-.52.14-.94.52-1.14,1.01-.2.49-.16,1.06.1,1.52l5.64,9.75c-6.71,1.67-11.71,7.43-12.27,14.55l-1.24,16.22c-.21,2.73.73,5.45,2.58,7.46H12.05c-2.73,0-4.99-2.14-5.13-4.87ZM70.67,87.3c-1.24,1.33-2.92,2.07-4.74,2.07h-16.73c-1.82,0-3.5-.73-4.74-2.07-1.24-1.33-1.84-3.07-1.7-4.88l1.24-16.22c.42-5.41,4.1-9.82,9.1-11.31l-2.25,7.59c-.27.91.25,1.88,1.17,2.15.16.05.33.07.49.07.75,0,1.43-.49,1.66-1.24l2.7-9.13h1.41l2.87,9.13c.23.74.91,1.21,1.65,1.21.17,0,.35-.03.52-.08.91-.29,1.42-1.26,1.13-2.17l-2.36-7.52c4.97,1.51,8.62,5.91,9.04,11.29l1.24,16.22c.14,1.81-.46,3.55-1.7,4.88Z"/></g></svg>