<?xml version="1.0" encoding="UTF-8"?><svg id="Layer_2" xmlns="http://www.w3.org/2000/svg" viewBox="0 0 84.65 103.95"><defs><style>.cls-1{opacity:.8;}.cls-2{fill:#fff;stroke:#009e4c;stroke-miterlimit:10;}</style></defs><g id="Layer_1-2"><g class="cls-1"><path class="cls-2" d="M13.4,19.74c.85.25,1.75-.23,2-1.09.97-3.27,3.62-5.8,6.93-6.6.52-.12.94-.49,1.13-.99.95-2.47,3.36-4.13,6.01-4.13.88,0,1.74.17,2.54.52.6.26,1.3.12,1.77-.34,2.15-2.15,5.27-3.39,8.56-3.39s6.41,1.24,8.56,3.39c.46.46,1.16.6,1.77.34.8-.34,1.65-.52,2.54-.52,2.65,0,5.06,1.66,6.01,4.13.19.49.61.87,1.13.99,3.3.79,5.96,3.32,6.93,6.6.21.7.85,1.15,1.54,1.15.15,0,.3-.02.46-.07.85-.25,1.34-1.15,1.09-2-1.21-4.11-4.42-7.34-8.47-8.6-1.6-3.28-4.99-5.43-8.68-5.43-.96,0-1.89.14-2.79.41-2.69-2.32-6.31-3.63-10.07-3.63s-7.38,1.31-10.07,3.63c-.9-.27-1.84-.41-2.79-.41-3.69,0-7.08,2.15-8.68,5.43-4.05,1.26-7.25,4.49-8.47,8.6-.25.85.23,1.75,1.09,2Z"/><circle class="cls-2" cx="29.45" cy="14.98" r="1.61"/><circle class="cls-2" cx="55.19" cy="14.98" r="1.61"/><circle class="cls-2" cx="42.32" cy="10.15" r="1.61"/><path class="cls-2" d="M79.73,92.23c3.79-16.51,3.56-33.84-.72-50.25l-2.54-9.74c1.68-.76,2.86-2.44,2.86-4.4v-1.61c0-2.66-2.16-4.83-4.83-4.83H10.15c-2.66,0-4.83,2.16-4.83,4.83v1.61c0,1.96,1.18,3.64,2.86,4.4l-2.54,9.74c-4.28,16.41-4.52,33.73-.72,50.25-2.47.21-4.42,2.26-4.42,4.78v1.61c0,2.66,2.16,4.83,4.83,4.83h74c2.66,0,4.83-2.16,4.83-4.83v-1.61c0-2.52-1.95-4.57-4.42-4.78ZM8.54,26.24c0-.89.72-1.61,1.61-1.61h64.34c.89,0,1.61.72,1.61,1.61v1.61c0,.89-.72,1.61-1.61,1.61H10.15c-.89,0-1.61-.72-1.61-1.61v-1.61ZM8.75,42.8l2.64-10.12h61.86l2.64,10.12c4.21,16.13,4.4,33.18.56,49.39H8.2c-3.84-16.21-3.65-33.26.56-49.39ZM80.93,98.62c0,.89-.72,1.61-1.61,1.61H5.33c-.89,0-1.61-.72-1.61-1.61v-1.61c0-.89.72-1.61,1.61-1.61h74c.89,0,1.61.72,1.61,1.61v1.61Z"/><path class="cls-2" d="M42.32,87.36c13.3,0,24.13-10.82,24.13-24.13s-10.82-24.13-24.13-24.13-24.13,10.82-24.13,24.13,10.82,24.13,24.13,24.13ZM42.32,84.15c-5.91,0-11.25-2.48-15.06-6.43h5.96c2.15,0,4.17-.84,5.69-2.36,1.88-1.88,4.94-1.88,6.83,0,1.52,1.52,3.54,2.36,5.69,2.36h5.96c-3.81,3.96-9.14,6.43-15.06,6.43ZM48.29,58.88c-.63-.63-1.65-.63-2.27,0l-2.08,2.08v-.94c0-3.55,2.89-6.43,6.43-6.43h3.22v3.22c0,3.55-2.89,6.43-6.43,6.43h-.94l2.08-2.08c.63-.63.63-1.65,0-2.27ZM40.72,62.57l-2.08-2.08c-.63-.63-1.65-.63-2.27,0s-.63,1.65,0,2.27l2.08,2.08h-.94c-3.55,0-6.43-2.89-6.43-6.43v-3.22h3.22c3.55,0,6.43,2.89,6.43,6.43v.94ZM42.32,42.32c11.53,0,20.91,9.38,20.91,20.91,0,4.15-1.23,8.01-3.32,11.26h-8.49c-1.27,0-2.51-.52-3.41-1.41-1.16-1.16-2.58-1.88-4.08-2.18v-4.45h3.22c5.32,0,9.65-4.33,9.65-9.65v-4.83c0-.89-.72-1.61-1.61-1.61h-4.83c-3.73,0-6.96,2.13-8.57,5.22-1.77-2.2-4.48-3.62-7.52-3.62h-4.83c-.89,0-1.61.72-1.61,1.61v4.83c0,5.32,4.33,9.65,9.65,9.65h3.22v2.84c-1.5.3-2.92,1.03-4.08,2.18-.9.9-2.14,1.41-3.41,1.41h-8.49c-2.09-3.25-3.32-7.11-3.32-11.26,0-11.53,9.38-20.91,20.91-20.91Z"/></g></g></svg>